<?xml version="1.0" encoding="UTF-8"?>
<svg version="1.1" xmlns="http://www.w3.org/2000/svg" width="535" height="161">
<path d="M0 0 C176.55 0 353.1 0 535 0 C535 53.13 535 106.26 535 161 C358.45 161 181.9 161 0 161 C0 107.87 0 54.74 0 0 Z " fill="#F6569B" transform="translate(0,0)"/>
<path d="M0 0 C4.87004749 -0.10142204 9.36539227 0.50550345 14.11401367 1.45068359 C15.14171875 1.64017578 15.14171875 1.64017578 16.19018555 1.83349609 C24.01309429 3.33934956 24.01309429 3.33934956 26.92651367 5.07568359 C28.98303958 9.79894987 29.21793269 14.25255555 29.20117188 19.32495117 C29.20628281 20.13067062 29.21139374 20.93639008 29.21665955 21.76652527 C29.23050638 24.41783169 29.22960218 27.06887665 29.22729492 29.72021484 C29.23118516 31.57338049 29.2355205 33.42654525 29.24028015 35.27970886 C29.24773227 39.16070446 29.24745884 43.04160909 29.2421875 46.92260742 C29.23640079 51.87876853 29.25330946 56.83455496 29.27653217 61.79065418 C29.29131693 65.617835 29.29213466 69.44492664 29.28902245 73.27213097 C29.28953349 75.09844389 29.29473026 76.92476209 29.30483437 78.75104713 C29.31727084 81.31368435 29.31036396 83.87560533 29.29882812 86.43823242 C29.31029373 87.55374985 29.31029373 87.55374985 29.32199097 88.69180298 C29.26870949 94.08876177 28.37341522 99.21287299 25.92651367 104.07568359 C15.27522446 111.17654307 -5.64686501 107.7458671 -17.81567383 105.80615234 C-21.21061723 104.7077883 -22.47980702 103.18372199 -24.140625 100.08398438 C-25.477009 95.77439954 -25.33849633 91.69114405 -25.30395508 87.20458984 C-25.30404068 86.22610077 -25.30412628 85.24761169 -25.30421448 84.23947144 C-25.30092356 81.03890232 -25.28203774 77.838682 -25.26098633 74.63818359 C-25.25142707 72.42928111 -25.24198791 70.22037811 -25.23266602 68.01147461 C-25.20412848 62.43086089 -25.15766248 56.85056019 -25.10345459 51.2701416 C-25.0750172 48.23886662 -25.05233523 45.20760159 -25.03100586 42.17626953 C-24.99708504 37.76528844 -24.94033096 33.35522262 -24.86294556 28.9447937 C-24.83687195 27.33805044 -24.8168831 25.73119562 -24.80331421 24.1242981 C-24.64682946 7.68517478 -24.64682946 7.68517478 -20.07348633 2.07568359 C-17.16887176 0.86893733 -14.44533544 0.68790693 -11.32348633 0.57568359 C-10.55004883 0.51638672 -9.77661133 0.45708984 -8.97973633 0.39599609 C-5.98779529 0.18515461 -2.99676117 0.10938372 0 0 Z " fill="#A8D6E9" transform="translate(180.073486328125,26.92431640625)"/>
<path d="M0 0 C1.84110294 -0.03009354 3.68225324 -0.05741086 5.5234375 -0.08203125 C6.39734131 -0.09556641 7.27124512 -0.10910156 8.17163086 -0.12304688 C15.39361574 -0.12846015 24.68348538 0.18206118 30.9609375 4.10546875 C33.0056924 8.83521949 33.2523649 13.27980624 33.2355957 18.35473633 C33.24070663 19.16045578 33.24581757 19.96617523 33.25108337 20.79631042 C33.26493021 23.44761685 33.26402601 26.09866181 33.26171875 28.75 C33.26560898 30.60316564 33.26994433 32.4563304 33.27470398 34.30949402 C33.2821561 38.19048962 33.28188267 42.07139424 33.27661133 45.95239258 C33.27082462 50.90855369 33.28773329 55.86434012 33.310956 60.82043934 C33.32574076 64.64762016 33.32655849 68.4747118 33.32344627 72.30191612 C33.32395732 74.12822905 33.32915409 75.95454725 33.33925819 77.78083229 C33.35169466 80.3434695 33.34478779 82.90539049 33.33325195 85.46801758 C33.34471756 86.583535 33.34471756 86.583535 33.35641479 87.72158813 C33.30313331 93.11854693 32.40783905 98.24265815 29.9609375 103.10546875 C19.44329956 110.11722738 0.14201659 106.27425775 -11.88671875 104.93359375 C-16.13354098 103.81794776 -17.94566717 101.97428758 -20.1295929 98.24154663 C-21.12915081 95.89387768 -21.28682911 94.2969362 -21.28198242 91.75634766 C-21.28499863 90.89696091 -21.28801483 90.03757416 -21.29112244 89.15214539 C-21.28399734 88.22150772 -21.27687225 87.29087006 -21.26953125 86.33203125 C-21.26961685 85.35212723 -21.26970245 84.37222321 -21.26979065 83.36262512 C-21.26649497 80.15176756 -21.24759872 76.94125598 -21.2265625 73.73046875 C-21.21700544 71.51700897 -21.2075662 69.30354867 -21.19824219 67.09008789 C-21.16968904 61.4955793 -21.12322623 55.90138205 -21.06903076 50.30706787 C-21.04062081 47.27194762 -21.01792988 44.23683703 -20.99658203 41.20166016 C-20.96267155 36.79180775 -20.90592423 32.38287149 -20.82852173 27.97357178 C-20.80244425 26.36725584 -20.78245722 24.76082822 -20.76889038 23.15435791 C-20.61832426 7.33679342 -20.61832426 7.33679342 -16.0390625 1.10546875 C-13.98046875 0.10546875 -13.98046875 0.10546875 -11.6015625 0.10546875 C-10.64507812 0.08871094 -9.68859375 0.07195313 -8.703125 0.0546875 C-5.79299988 0.09501972 -2.90834285 0.06734769 0 0 Z " fill="#A8D6E9" transform="translate(111.0390625,27.89453125)"/>
<path d="M0 0 C45.7896021 0 45.7896021 0 51.765625 4.92578125 C56.65413014 13.14032628 55.91752928 28.36468303 53.8125 37.25 C52.79778249 41.06841566 52.26480122 42.72195872 49.5 45.625 C48.675 46.07875 47.85 46.5325 47 47 C46.01 47.66 45.02 48.32 44 49 C44.721875 49.165 45.44375 49.33 46.1875 49.5 C50.24217501 51.66249334 52.26080323 54.78579243 54 59 C55.38811628 66.02320738 55.04456299 73.07210167 54.81298828 80.20117188 C54.74972282 82.25901594 54.70856934 84.3165992 54.66796875 86.375 C54.62800781 87.67953125 54.58804688 88.9840625 54.546875 90.328125 C54.49805176 92.10558105 54.49805176 92.10558105 54.44824219 93.91894531 C53.96511102 97.23981424 53.36733473 98.65870665 51 101 C47.8203125 102.01171875 47.8203125 102.01171875 44.125 102.6875 C42.91070312 102.91824219 41.69640625 103.14898437 40.4453125 103.38671875 C39.30835938 103.58910156 38.17140625 103.79148437 37 104 C34.525 104.495 34.525 104.495 32 105 C21.44 105 10.88 105 0 105 C0 70.35 0 35.7 0 0 Z " fill="#A8D6E8" transform="translate(26,28)"/>
<path d="M0 0 C7.59 0 15.18 0 23 0 C29.88000015 21.31121997 35.73471405 42.87740408 41.51953125 64.5078125 C42.63910438 68.68443637 43.79423968 72.84747908 45 77 C45.14743776 68.35031814 44.73085419 59.78422012 44.1449585 51.15863037 C43.06504124 35.07718465 42.77007064 19.12060313 43 3 C46.63 3 50.26 3 54 3 C55.69709309 10.6369189 56.14437812 17.73382317 56.08984375 25.52734375 C56.08605209 26.56169052 56.08226044 27.59603729 56.07835388 28.66172791 C56.01677226 41.12898819 55.8341532 53.59521033 55.62768555 66.06079102 C55.57179342 69.44029828 55.52189902 72.81986803 55.47328281 76.19948673 C55.42493082 79.47810708 55.37026781 82.75662249 55.31640625 86.03515625 C55.29133751 87.83666893 55.29133751 87.83666893 55.26576233 89.67457581 C54.99351861 105.00648139 54.99351861 105.00648139 53 107 C51.5112814 107.08669432 50.018555 107.10703494 48.52734375 107.09765625 C47.62822266 107.09443359 46.72910156 107.09121094 45.80273438 107.08789062 C44.38444336 107.07532227 44.38444336 107.07532227 42.9375 107.0625 C41.98810547 107.05798828 41.03871094 107.05347656 40.06054688 107.04882812 C37.70696935 107.0370011 35.35351523 107.02052025 33 107 C29.67178772 97.53003517 26.61797286 88.05626295 24.1875 78.3125 C23.9810083 77.4884668 23.7745166 76.66443359 23.56176758 75.81542969 C22.43399282 71.1792855 21.68128775 66.76901427 21 62 C20.67 76.85 20.34 91.7 20 107 C1 107 1 107 -1 106 C-0.67 71.02 -0.34 36.04 0 0 Z " fill="#A9D5E8" transform="translate(285,27)"/>
<path d="M0 0 C6.27 0 12.54 0 19 0 C18.67 12.21 18.34 24.42 18 37 C20.97 36.505 20.97 36.505 24 36 C25.69308956 33.44632276 26.85803475 31.27690839 28.05078125 28.5 C28.39505661 27.74912109 28.73933197 26.99824219 29.09403992 26.22460938 C30.18857222 23.82555934 31.25093923 21.41379557 32.3125 19 C33.39885673 16.58981841 34.49145191 14.182535 35.58451843 11.77539062 C36.2621858 10.2765437 36.9345389 8.77528094 37.60115051 7.27148438 C39.89682272 2.10317728 39.89682272 2.10317728 41 1 C43.35313555 0.92728259 45.70833668 0.91629132 48.0625 0.9375 C49.35285156 0.94652344 50.64320313 0.95554687 51.97265625 0.96484375 C52.97167969 0.97644531 53.97070312 0.98804687 55 1 C53.30961796 6.88685374 50.5209352 12.13143007 47.75 17.5625 C46.76249997 19.53750007 45.77551818 21.51275935 44.7890625 23.48828125 C43.1861958 26.68155152 41.55397421 29.84782145 39.8359375 32.98046875 C39.27132812 34.05941406 38.70671875 35.13835938 38.125 36.25 C37.63257813 37.14203125 37.14015625 38.0340625 36.6328125 38.953125 C35.0252151 46.69340877 40.52665916 56.35165555 43.23046875 63.5546875 C44.04120337 65.73690943 44.85174469 67.91920317 45.66210938 70.1015625 C46.93032187 73.50616643 48.20059226 76.90997229 49.47436523 80.3125 C50.71123972 83.62031537 51.94011629 86.93101459 53.16796875 90.2421875 C53.55228561 91.261987 53.93660248 92.2817865 54.33256531 93.33248901 C54.68325577 94.28092682 55.03394623 95.22936462 55.39526367 96.20654297 C55.70598312 97.03797821 56.01670258 97.86941345 56.33683777 98.7260437 C57 101 57 101 57 105 C49.08 105 41.16 105 33 105 C32.57847656 102.44765625 32.15695313 99.8953125 31.72265625 97.265625 C31.31264835 94.78997378 30.90207888 92.31441631 30.49145508 89.83886719 C30.20668774 88.12021445 29.92250303 86.40146507 29.63891602 84.68261719 C29.2308675 82.21002895 28.82071536 79.73779744 28.41015625 77.265625 C28.28407486 76.49881409 28.15799347 75.73200317 28.02809143 74.94195557 C27.37436358 70.94374967 27.37436358 70.94374967 26.46238708 66.99945068 C25.7694672 64.00313182 25.9411353 61.06096432 26 58 C23.36 58 20.72 58 18 58 C18.03029297 58.85529297 18.06058594 59.71058594 18.09179688 60.59179688 C19.14702279 90.73878951 19.14702279 90.73878951 19 105 C12.4 105 5.8 105 -1 105 C-3.25058712 97.12294508 -3.25058712 97.12294508 -3.25878906 92.49658203 C-3.26500778 91.4613591 -3.2712265 90.42613617 -3.27763367 89.35954285 C-3.27367081 88.25347183 -3.26970795 87.14740082 -3.265625 86.0078125 C-3.26830887 84.8405513 -3.27099274 83.6732901 -3.27375793 82.47065735 C-3.27768999 78.68865873 -3.26507759 74.90696738 -3.25 71.125 C-3.2478952 69.84344025 -3.24579041 68.56188049 -3.24362183 67.2414856 C-3.20007372 44.74721396 -2.79299271 22.34394165 0 0 Z " fill="#A9D5E8" transform="translate(222,28)"/>
<path d="M0 0 C15.51 0 31.02 0 47 0 C47 9.57 47 19.14 47 29 C37.1 29 27.2 29 17 29 C17 34.61 17 40.22 17 46 C24.59 46 32.18 46 40 46 C40 50.62 40 55.24 40 60 C33.07 60 26.14 60 19 60 C19 66.93 19 73.86 19 81 C21.165625 80.9690625 21.165625 80.9690625 23.375 80.9375 C31.60202677 80.92671753 39.79029419 81.50618311 48 82 C48 89.26 48 96.52 48 104 C31.5 104 15 104 -2 104 C-2.04010881 85.83516591 -2.04010881 85.83516591 -2.04882812 77.9609375 C-2.05475544 72.63377865 -2.06168799 67.30663734 -2.07543945 61.97949219 C-2.18711027 17.49688217 -2.18711027 17.49688217 0 0 Z " fill="#A9D6E8" transform="translate(353,29)"/>
<path d="M0 0 C0.94166016 -0.020625 1.88332031 -0.04125 2.85351562 -0.0625 C8.91429185 -0.09624127 13.50418679 0.46368553 18.9375 3.25 C21.87464791 7.07132809 22.29812388 9.88612015 22.23046875 14.64453125 C22.2159668 16.44760742 22.2159668 16.44760742 22.20117188 18.28710938 C22.17603516 19.53298828 22.15089844 20.77886719 22.125 22.0625 C22.10469727 23.96032227 22.10469727 23.96032227 22.08398438 25.89648438 C22.04868318 29.01475643 21.99936819 32.13216042 21.9375 35.25 C20.02606147 35.26357234 18.11459489 35.27323065 16.203125 35.28125 C15.13868164 35.28705078 14.07423828 35.29285156 12.97753906 35.29882812 C9.5263105 35.24339561 6.32755737 34.86637407 2.9375 34.25 C2.9375 29.96 2.9375 25.67 2.9375 21.25 C-2.0125 21.745 -2.0125 21.745 -7.0625 22.25 C-7.0625 29.84 -7.0625 37.43 -7.0625 45.25 C-1.63393443 45.17193933 -1.63393443 45.17193933 3.79418945 45.06982422 C10.01465533 45.02565186 15.85874684 45.97548066 21.9375 47.25 C21.96244748 53.01171564 21.9804758 58.77339898 21.99243164 64.53515625 C21.99742238 66.49023996 22.00421734 68.44532 22.01293945 70.40039062 C22.04024839 76.6846596 22.01972401 82.96620102 21.9375 89.25 C21.92493164 90.53874023 21.91236328 91.82748047 21.89941406 93.15527344 C21.60135671 100.54395842 21.60135671 100.54395842 18.6015625 103.734375 C11.36996155 106.74599287 5.73304548 107.98923276 -2.0625 107.25 C-2.9803125 107.22679687 -3.898125 107.20359375 -4.84375 107.1796875 C-11.62175479 106.89409741 -17.50791721 105.28277929 -23.0625 101.25 C-27.17399359 95.39343518 -26.21770408 86.91379271 -26.1875 80.0625 C-26.19136719 79.17369141 -26.19523437 78.28488281 -26.19921875 77.36914062 C-26.19792969 76.51126953 -26.19664062 75.65339844 -26.1953125 74.76953125 C-26.19362061 73.61094604 -26.19362061 73.61094604 -26.19189453 72.42895508 C-26.06263658 70.25230002 -25.66139703 68.34197645 -25.0625 66.25 C-22.97923869 66.22290556 -20.89587559 66.20356127 -18.8125 66.1875 C-17.65234375 66.17589844 -16.4921875 66.16429688 -15.296875 66.15234375 C-12.0625 66.25 -12.0625 66.25 -8.0625 67.25 C-8.0625 72.2 -8.0625 77.15 -8.0625 82.25 C-3.7725 82.91 0.5175 83.57 4.9375 84.25 C4.9375 75.67 4.9375 67.09 4.9375 58.25 C1.905625 58.2809375 1.905625 58.2809375 -1.1875 58.3125 C-8.52142291 58.31998359 -15.75272402 57.87210859 -23.0625 57.25 C-23.91538717 45.705563 -24.24271154 34.14712282 -24.34960938 22.57391357 C-24.36653569 21.02470833 -24.39046146 19.47556374 -24.42138672 17.92657471 C-24.46334962 15.72157772 -24.47906441 13.51784647 -24.48828125 11.3125 C-24.50286377 10.02472656 -24.51744629 8.73695312 -24.5324707 7.41015625 C-24.0625 4.25 -24.0625 4.25 -22.28955078 2.35058594 C-20.04323895 1.24048138 -18.48723358 0.77904427 -16.00390625 0.578125 C-15.2164502 0.51431641 -14.42899414 0.45050781 -13.61767578 0.38476562 C-9.07612934 0.14523442 -4.54771507 0.02500462 0 0 Z " fill="#A9D6E8" transform="translate(433.0625,26.75)"/>
<path d="M0 0 C6.35375112 -0.0253261 12.70748926 -0.04285678 19.0612793 -0.05493164 C21.22339362 -0.05996472 23.38550453 -0.06679169 25.54760742 -0.07543945 C28.65284059 -0.08754979 31.7580288 -0.09323852 34.86328125 -0.09765625 C36.31653557 -0.10539818 36.31653557 -0.10539818 37.79914856 -0.11329651 C38.6998558 -0.11337204 39.60056305 -0.11344757 40.52856445 -0.11352539 C41.32132278 -0.115746 42.11408112 -0.11796661 42.93086243 -0.12025452 C45 0 45 0 48 1 C48.11381955 7.76594019 47.88021369 14.28837062 47 21 C43.37 21 39.74 21 36 21 C36 48.72 36 76.44 36 105 C27.75 105 19.5 105 11 105 C10.92893448 88.18412171 11.18998308 71.37676228 11.46356201 54.56384277 C11.52498979 50.7684908 11.58467772 46.97311145 11.64453125 43.17773438 C11.76136033 35.78512891 11.88021539 28.39255827 12 21 C7.71 20.67 3.42 20.34 -1 20 C-1.0732728 14.87090427 -1.01878569 9.90584013 -0.49389648 4.80224609 C-0.40196518 3.90267181 -0.31003387 3.00309753 -0.21531677 2.07626343 C-0.14426224 1.3910965 -0.0732077 0.70592957 0 0 Z " fill="#A9D5E8" transform="translate(462,28)"/>
<path d="M0 0 C2.27057377 -0.05398987 4.54151288 -0.09278742 6.8125 -0.125 C8.07707031 -0.14820313 9.34164062 -0.17140625 10.64453125 -0.1953125 C14 0 14 0 17 2 C17.35644531 5.03076172 17.35644531 5.03076172 17.328125 8.9296875 C17.32661438 9.62837952 17.32510376 10.32707153 17.32354736 11.04693604 C17.31416908 13.32334141 17.28266076 15.59881933 17.25 17.875 C17.23811199 19.42691451 17.22704518 20.97883552 17.21679688 22.53076172 C17.12179302 33.70295165 16.76690388 44.85250434 16 56 C12.54839849 58.11441933 9.81967844 58.24118936 5.8125 58.1875 C4.74644531 58.18105469 3.68039063 58.17460938 2.58203125 58.16796875 C0 58 0 58 -1 57 C-1.09881245 55.29210719 -1.12798966 53.58013307 -1.12939453 51.86938477 C-1.13412277 50.2274691 -1.13412277 50.2274691 -1.13894653 48.55238342 C-1.1369223 47.36076096 -1.13489807 46.16913849 -1.1328125 44.94140625 C-1.13376923 43.72678207 -1.13472595 42.5121579 -1.13571167 41.26072693 C-1.13639377 38.68578032 -1.13453741 36.110832 -1.13037109 33.53588867 C-1.12502789 29.58313142 -1.13031274 25.63048804 -1.13671875 21.67773438 C-1.13605788 19.18229141 -1.13477654 16.68684853 -1.1328125 14.19140625 C-1.13483673 13.00180801 -1.13686096 11.81220978 -1.13894653 10.58656311 C-1.13579437 9.48880051 -1.13264221 8.3910379 -1.12939453 7.26000977 C-1.12859894 6.2903981 -1.12780334 5.32078644 -1.12698364 4.3217926 C-1 2 -1 2 0 0 Z " fill="#EF408B" transform="translate(108,56)"/>
<path d="M0 0 C2.27057377 -0.05398987 4.54151288 -0.09278742 6.8125 -0.125 C8.07707031 -0.14820313 9.34164062 -0.17140625 10.64453125 -0.1953125 C14 0 14 0 17 2 C17.35644531 4.9230957 17.35644531 4.9230957 17.328125 8.67578125 C17.32661438 9.34949768 17.32510376 10.02321411 17.32354736 10.71734619 C17.3141619 12.91612739 17.28263683 15.11395096 17.25 17.3125 C17.23810355 18.81436541 17.22703792 20.31623763 17.21679688 21.81811523 C17.1168473 33.22648052 16.72540524 44.61372845 16 56 C12.54839849 58.11441933 9.81967844 58.24118936 5.8125 58.1875 C4.74644531 58.18105469 3.68039063 58.17460938 2.58203125 58.16796875 C0 58 0 58 -1 57 C-1.09881245 55.29210719 -1.12798966 53.58013307 -1.12939453 51.86938477 C-1.13412277 50.2274691 -1.13412277 50.2274691 -1.13894653 48.55238342 C-1.1369223 47.36076096 -1.13489807 46.16913849 -1.1328125 44.94140625 C-1.13376923 43.72678207 -1.13472595 42.5121579 -1.13571167 41.26072693 C-1.13639377 38.68578032 -1.13453741 36.110832 -1.13037109 33.53588867 C-1.12502789 29.58313142 -1.13031274 25.63048804 -1.13671875 21.67773438 C-1.13605788 19.18229141 -1.13477654 16.68684853 -1.1328125 14.19140625 C-1.13483673 13.00180801 -1.13686096 11.81220978 -1.13894653 10.58656311 C-1.13579437 9.48880051 -1.13264221 8.3910379 -1.12939453 7.26000977 C-1.12859894 6.2903981 -1.12780334 5.32078644 -1.12698364 4.3217926 C-1 2 -1 2 0 0 Z " fill="#F14A92" transform="translate(173,56)"/>
<path d="M0 0 C10 1 10 1 13 3.1875 C17.69820034 9.79434423 17.83698627 17.15568683 17 25 C15.95431961 27.791512 14.79616019 29.58640975 13 32 C8.71 32 4.42 32 0 32 C0 21.44 0 10.88 0 0 Z " fill="#ED3683" transform="translate(39,85)"/>
<path d="M0 0 C11.57983353 -0.76294657 11.57983353 -0.76294657 14.94140625 1.04296875 C18.60608289 4.77328139 19.15612542 7.70496805 19.1875 12.75 C19.20167969 13.77609375 19.21585938 14.8021875 19.23046875 15.859375 C19 19 19 19 17 25 C12.05 25 7.1 25 2 25 C-0.25 18.25 -0.25 18.25 -0.1953125 14.2578125 C-0.18886719 13.41992188 -0.18242188 12.58203125 -0.17578125 11.71875 C-0.15902344 10.8628125 -0.14226563 10.006875 -0.125 9.125 C-0.11597656 8.24585938 -0.10695312 7.36671875 -0.09765625 6.4609375 C-0.07424577 4.3071729 -0.0383801 2.15354986 0 0 Z " fill="#EE3482" transform="translate(40,46)"/>
</svg>
