<?xml version="1.0" encoding="UTF-8"?>
<svg version="1.1" xmlns="http://www.w3.org/2000/svg" width="467" height="284">
<path d="M0 0 C154.11 0 308.22 0 467 0 C467 93.72 467 187.44 467 284 C312.89 284 158.78 284 0 284 C0 190.28 0 96.56 0 0 Z " fill="#252B47" transform="translate(0,0)"/>
<path d="M0 0 C42.24 0 84.48 0 128 0 C122.37551188 4.4995905 122.37551188 4.4995905 119.44140625 6.4375 C118.49104492 7.06785156 118.49104492 7.06785156 117.52148438 7.7109375 C116.87501953 8.13632813 116.22855469 8.56171875 115.5625 9 C114.91990234 9.42539063 114.27730469 9.85078125 113.61523438 10.2890625 C112.40380351 11.09094364 111.19173484 11.89186288 109.97875977 12.69140625 C108.34421729 13.77236216 106.76710063 14.93960863 105.20849609 16.12744141 C101.41137619 18.34353558 99.34441099 18.48638895 94.97265625 18.3984375 C94.25537857 18.38461029 93.53810089 18.37078308 92.79908752 18.35653687 C80.32153374 17.99776631 67.86628497 16.7182125 55.4375 15.625 C52.82753126 15.40037487 50.21750537 15.17641274 47.60742188 14.953125 C42.50985952 14.51645992 37.41276712 14.0747889 32.31591797 13.62988281 C27.50882709 13.21229023 22.70087106 12.81045608 17.89111328 12.42480469 C16.2304055 12.29082779 16.2304055 12.29082779 14.53614807 12.15414429 C12.46959032 11.988413 10.40281671 11.82534329 8.33580017 11.66543579 C6.96700462 11.55526627 6.96700462 11.55526627 5.57055664 11.44287109 C4.77976212 11.38102631 3.98896759 11.31918152 3.17420959 11.25546265 C1.04589772 11.00539283 -0.9361 10.56862832 -3 10 C-3 10.66 -3 11.32 -3 12 C-2.16162598 12.13720459 -1.32325195 12.27440918 -0.45947266 12.41577148 C3.15122162 13.02553799 6.75094741 13.68095119 10.3515625 14.34765625 C11.83772515 14.62232913 13.32389066 14.89698658 14.81005859 15.17163086 C15.59370789 15.31664032 16.37735718 15.46164978 17.18475342 15.61105347 C33.24297614 18.58183069 49.30720386 21.51897214 65.375 24.4375 C66.36058899 24.61652863 67.34617798 24.79555725 68.3616333 24.98001099 C73.9076447 25.98728525 79.45377122 26.9939234 85 28 C83.62927759 31.24781805 82.26602392 32.82043216 79.33984375 34.76171875 C78.62892578 35.24060547 77.91800781 35.71949219 77.18554688 36.21289062 C76.44369141 36.69951172 75.70183594 37.18613281 74.9375 37.6875 C73.46702255 38.66993654 71.9969488 39.65297768 70.52734375 40.63671875 C69.54882446 41.28193481 69.54882446 41.28193481 68.55053711 41.94018555 C67.02674984 42.91166526 67.02674984 42.91166526 66 44 C61.60760467 44.31374252 58.19329471 44.2254762 54.0625 42.6875 C49.98882829 41.20180796 46.0310625 40.43718949 41.75 39.75 C31.0470203 38.01125766 20.57815266 35.30323082 10.0546875 32.71875 C1.73216138 30.67674198 -6.62342528 28.80539295 -15 27 C-12.96510002 22.5691694 -10.16857413 18.60470758 -7.453125 14.57226562 C-4.30394731 9.77980897 -2.40680428 5.41530963 0 0 Z " fill="#F15397" transform="translate(301,109)"/>
<path d="M0 0 C41.91 0 83.82 0 127 0 C131 8 131 8 131 10 C110.68373612 12.06872431 90.34530005 13.8678639 70 15.625 C68.73174377 15.73500336 67.46348755 15.84500671 66.15679932 15.95834351 C60.15408405 16.47831141 54.15101225 16.98998715 48.14575195 17.47973633 C44.48596005 17.77965642 40.83715729 18.11522334 37.18823242 18.52612305 C26.04974101 19.65089699 26.04974101 19.65089699 20.95532227 15.93725586 C20.41319092 15.48358643 19.87105957 15.02991699 19.3125 14.5625 C18.07861192 13.63737105 16.84422894 12.71290183 15.609375 11.7890625 C15.01189453 11.32145508 14.41441406 10.85384766 13.79882812 10.37207031 C10.98889777 8.22877381 8.03142491 6.35405951 5.0625 4.4375 C3.35604206 3.32009605 1.66065027 2.18441165 0 1 C0 0.67 0 0.34 0 0 Z " fill="#F55499" transform="translate(45,109)"/>
<path d="M0 0 C2.94150061 2.66312516 4.9928031 5.77245346 7.1875 9.0625 C7.90292969 10.12597656 8.61835938 11.18945312 9.35546875 12.28515625 C11 15 11 15 11 17 C-9.94117039 22.02410245 -30.8965759 26.98871376 -51.96826172 31.43945312 C-53.31428467 31.7265918 -53.31428467 31.7265918 -54.6875 32.01953125 C-55.47511719 32.18557861 -56.26273438 32.35162598 -57.07421875 32.52270508 C-59.06596914 32.94177161 -59.06596914 32.94177161 -61 34 C-68.44081085 34.89452371 -72.01697474 32.59568762 -77.8125 28.125 C-78.56208984 27.56941406 -79.31167969 27.01382813 -80.08398438 26.44140625 C-81.47111006 25.41252839 -82.85247984 24.37580784 -84.22583008 23.32861328 C-85.77867505 22.16574245 -87.38582327 21.07611782 -89 20 C-89 19.34 -89 18.68 -89 18 C-87.71464355 17.764021 -86.42928711 17.52804199 -85.10498047 17.28491211 C-81.23671843 16.57471603 -77.36847698 15.86440784 -73.50024414 15.15405273 C-69.0645827 14.33949957 -64.6288651 13.52525309 -60.19311523 12.71118164 C-49.57918588 10.76277744 -38.96594923 8.81085695 -28.35546875 6.84375 C-26.5906626 6.5169812 -24.82585155 6.19023884 -23.06103516 5.86352539 C-20.57294157 5.402902 -18.08496668 4.94168333 -15.59735107 4.47848511 C-13.3269016 4.05573313 -11.05607385 3.63507255 -8.78515625 3.21484375 C-7.51551025 2.97886475 -6.24586426 2.74288574 -4.93774414 2.49975586 C-2 2 -2 2 0 2 C0 1.34 0 0.68 0 0 Z " fill="#EF5396" transform="translate(176,119)"/>
<path d="M0 0 C0.77601563 0.19078125 1.55203125 0.3815625 2.3515625 0.578125 C8.06106528 2.26546947 13.45951981 4.40273547 18.9296875 6.74609375 C21.92338033 7.96870876 24.92308626 9.00783591 28 10 C33.02155682 11.62615182 37.83518225 13.55763764 42.6875 15.62890625 C49.05528499 18.26462857 55.53578205 20.61283322 62 23 C56.79032918 28.8055482 49.53433251 30.98053686 41.9609375 31.42578125 C21.5955336 31.97803843 5.24842851 25.58880036 -12 15.25 C-12.79615723 14.77820313 -13.59231445 14.30640625 -14.41259766 13.8203125 C-15.14269043 13.36914062 -15.8727832 12.91796875 -16.625 12.453125 C-17.27726563 12.05254883 -17.92953125 11.65197266 -18.6015625 11.23925781 C-19.29378906 10.6258252 -19.29378906 10.6258252 -20 10 C-20 9.01 -20 8.02 -20 7 C-17.80269616 5.62442759 -15.59510062 4.27536748 -13.375 2.9375 C-12.44880859 2.35258789 -12.44880859 2.35258789 -11.50390625 1.75585938 C-7.27303279 -0.76039695 -4.92119832 -1.43421664 0 0 Z " fill="#F05397" transform="translate(267,156)"/>
<path d="M0 0 C1.05960937 0.64066406 2.11921875 1.28132812 3.2109375 1.94140625 C4.00757813 2.43511719 4.80421875 2.92882812 5.625 3.4375 C1.64406781 7.85988209 -2.59738711 10.56037209 -7.8125 13.375 C-9.0046814 14.0246875 -9.0046814 14.0246875 -10.22094727 14.6875 C-27.51455935 23.9801076 -45.92591511 30.13520854 -65.74609375 25.6796875 C-70.29654305 23.96228167 -72.97489955 21.90637842 -76.375 18.4375 C-65.79317427 13.82424806 -54.9698165 9.8535227 -44.14599609 5.85205078 C-40.98451898 4.6817694 -37.82623657 3.50312937 -34.66796875 2.32421875 C-32.64602289 1.57500908 -30.62389388 0.82629344 -28.6015625 0.078125 C-27.66398102 -0.27288269 -26.72639954 -0.62389038 -25.76040649 -0.98553467 C-15.87830536 -4.61820033 -9.34949449 -5.71357997 0 0 Z " fill="#F05397" transform="translate(221.375,160.5625)"/>
<path d="M0 0 C2.96146125 2.04201841 5.60504383 4.31327252 8 7 C8 7.66 8 8.32 8 9 C-0.51243611 11.92244385 -9.03069953 14.82701268 -17.5569334 17.70895576 C-21.51585546 19.04772997 -25.47249738 20.39256352 -29.42456055 21.75146484 C-33.23877098 23.06271423 -37.05813369 24.35775561 -40.88160133 25.64175034 C-42.33919047 26.1343872 -43.79483112 26.6328285 -45.24841881 27.13714981 C-47.28534674 27.84275274 -49.32823556 28.52737108 -51.3737793 29.20751953 C-52.53515915 29.60278839 -53.696539 29.99805725 -54.89311218 30.40530396 C-59.74784727 31.33455919 -62.09708584 29.60385249 -66.078125 26.94140625 C-67.12484375 26.15636719 -68.1715625 25.37132812 -69.25 24.5625 C-70.30703125 23.78003906 -71.3640625 22.99757812 -72.453125 22.19140625 C-75 20 -75 20 -76 17 C-72.70908159 16.20520188 -69.41713158 15.41475663 -66.125 14.625 C-65.2071875 14.40328125 -64.289375 14.1815625 -63.34375 13.953125 C-57.98384917 12.66976846 -52.62279453 11.494533 -47.20532227 10.47949219 C-44.24815216 9.83652948 -41.45896371 8.85040416 -38.60546875 7.85546875 C-30.01056032 5.03345234 -21.19329606 2.86126372 -12.26953125 1.39453125 C-2.25333333 -0.34666667 -2.25333333 -0.34666667 0 0 Z " fill="#EF5397" transform="translate(195,142)"/>
<path d="M0 0 C0.99257813 0.33257812 1.98515625 0.66515625 3.0078125 1.0078125 C8.02885076 2.59761732 12.95698804 3.73995795 18.1328125 4.6328125 C25.34623294 5.88619602 32.17714771 7.83258607 39.1328125 10.1328125 C46.0498437 12.39057603 46.0498437 12.39057603 53.1953125 13.6328125 C57.78202644 14.21525237 61.81151989 15.54233675 66.1328125 17.1328125 C62.99014028 20.60058874 59.52023623 23.62670311 55.8828125 26.5703125 C55.01140625 27.29089844 54.14 28.01148438 53.2421875 28.75390625 C45.81422751 32.04796388 34.62155823 26.05994043 27.34765625 23.5625 C26.03786582 23.11653917 24.72793181 22.67099985 23.41786194 22.2258606 C19.99869321 21.06284086 16.58148343 19.89416968 13.16467285 18.72424316 C9.66630314 17.52753443 6.16607938 16.33627419 2.66601562 15.14453125 C-4.18019418 12.81256991 -11.02434027 10.474625 -17.8671875 8.1328125 C-16.43260681 5.1355912 -15.09159309 3.06622568 -12.6171875 0.8203125 C-12.05515625 0.28792969 -11.493125 -0.24445313 -10.9140625 -0.79296875 C-7.22199357 -2.73060034 -3.80128451 -1.1497073 0 0 Z " fill="#F05397" transform="translate(288.8671875,142.8671875)"/>
<path d="M0 0 C0 0.66 0 1.32 0 2 C-5.3177215 3.24200752 -10.58201328 4.30834212 -16 5 C-16 4.34 -16 3.68 -16 3 C-16.99 2.34 -17.98 1.68 -19 1 C-12.65333314 0.41639845 -6.37625222 -0.14491482 0 0 Z " fill="#413052" transform="translate(176,119)"/>
</svg>
