<?xml version="1.0" encoding="UTF-8"?>
<svg version="1.1" xmlns="http://www.w3.org/2000/svg" width="925" height="345">
<path d="M0 0 C305.25 0 610.5 0 925 0 C925 113.85 925 227.7 925 345 C619.75 345 314.5 345 0 345 C0 231.15 0 117.3 0 0 Z " fill="#FAFBFC" transform="translate(0,0)"/>
<path d="M0 0 C1.01361099 -0.01007584 2.02722198 -0.02015167 3.07154846 -0.03053284 C6.41971895 -0.05901161 9.76743861 -0.06488937 13.11572266 -0.06811523 C15.44593491 -0.07775617 17.77614533 -0.08784864 20.10635376 -0.09837341 C24.99037892 -0.11633446 29.87424492 -0.12189443 34.75830078 -0.12011719 C41.01196395 -0.1198123 47.26460536 -0.16077377 53.51802635 -0.21243382 C58.33080723 -0.24581451 63.14334156 -0.25187423 67.95622635 -0.25028801 C70.26149646 -0.25382508 72.56677316 -0.26707771 74.87192917 -0.29028511 C78.09893813 -0.31973256 81.32373549 -0.31103764 84.55078125 -0.29296875 C85.97398933 -0.31825653 85.97398933 -0.31825653 87.4259491 -0.34405518 C93.2947195 -0.26069262 96.39507191 0.84564875 100.63988686 4.95359898 C102.89005381 7.59031652 103.03259413 9.40249796 103.04522705 12.78071594 C103.05093719 13.69338226 103.05664734 14.60604858 103.06253052 15.54637146 C103.06420731 17.05264854 103.06420731 17.05264854 103.06591797 18.58935547 C103.07336533 20.17245514 103.07336533 20.17245514 103.08096313 21.78753662 C103.09561064 25.29138838 103.10239121 28.79519487 103.10791016 32.29907227 C103.11365964 34.72804262 103.1194174 37.15701296 103.12518311 39.58598328 C103.13570058 44.68460299 103.14153831 49.7832069 103.14501953 54.88183594 C103.15050464 61.41906607 103.17453009 67.95608795 103.20299149 74.49325275 C103.22160426 79.51265576 103.22682276 84.53200849 103.22835541 89.5514431 C103.23138572 91.9616122 103.23942694 94.37178034 103.25254059 96.78191566 C103.26957165 100.15278639 103.26772773 103.52314682 103.26123047 106.89404297 C103.27044525 107.892155 103.27966003 108.89026703 103.28915405 109.91862488 C103.23629988 118.66059114 103.23629988 118.66059114 99.90478516 122.43579102 C95.39587772 126.36022285 90.44725381 125.859988 84.77783203 125.82397461 C83.76100845 125.82923157 82.74418488 125.83448853 81.69654846 125.83990479 C78.33872065 125.85309786 74.98136771 125.84436888 71.62353516 125.83422852 C69.2885326 125.83624944 66.95353067 125.83916104 64.61853027 125.84292603 C59.72609444 125.84734845 54.83382297 125.84092076 49.94140625 125.8269043 C43.66989813 125.80981267 37.39877518 125.81965426 31.12728119 125.83762169 C26.30602109 125.84846159 21.48485232 125.84501219 16.66358948 125.83723831 C14.35111953 125.83523689 12.0386413 125.83769354 9.72618103 125.84467697 C6.49447662 125.85229461 3.26339621 125.84068222 0.03173828 125.82397461 C-0.92425766 125.8300473 -1.8802536 125.83612 -2.86521912 125.84237671 C-7.70869515 125.79598141 -11.27739974 125.75871466 -15.09521484 122.43579102 C-19.1045 117.88084568 -18.51852123 112.68719811 -18.48339844 106.94165039 C-18.4886554 105.88581253 -18.49391235 104.82997467 -18.49932861 103.74214172 C-18.51252485 100.25445737 -18.50379153 96.76722996 -18.49365234 93.27954102 C-18.49567318 90.85485751 -18.49858469 88.43017459 -18.50234985 86.00549316 C-18.50677271 80.9247458 -18.50034318 75.8441567 -18.48632812 70.76342773 C-18.4692365 64.24978793 -18.47907785 57.73651896 -18.49704552 51.22289276 C-18.50788424 46.21634119 -18.50443655 41.20987758 -18.49666214 36.20332336 C-18.49466039 33.80153866 -18.49711851 31.39974597 -18.5041008 28.99797058 C-18.51171647 25.64174227 -18.50010869 22.28611516 -18.48339844 18.92993164 C-18.48947113 17.93653275 -18.49554382 16.94313385 -18.50180054 15.91963196 C-18.42147829 7.21475598 -18.42147829 7.21475598 -15.09521484 3.43579102 C-10.59465736 -0.47108344 -5.65800923 -0.008073 0 0 Z " fill="#D6ECF5" transform="translate(344.09521484375,161.564208984375)"/>
<path d="M0 0 C0.86770523 -0.01004562 1.73541046 -0.02009125 2.62940979 -0.03044128 C3.58369873 -0.03627228 4.53798767 -0.04210327 5.52119446 -0.04811096 C6.5246138 -0.05789474 7.52803314 -0.06767853 8.56185913 -0.07775879 C11.89374965 -0.10775492 15.22559986 -0.12911119 18.55757141 -0.14796448 C20.26279433 -0.15782222 20.26279433 -0.15782222 22.0024662 -0.1678791 C28.02106609 -0.20049291 34.03964812 -0.22493756 40.05830383 -0.24440002 C45.04131327 -0.26221014 50.02375652 -0.29702378 55.00654602 -0.34693909 C61.01949684 -0.4071084 67.03192274 -0.43787191 73.04516029 -0.44757271 C75.3365012 -0.45613508 77.62782781 -0.47497223 79.91899681 -0.50431633 C83.12946569 -0.54321656 86.33788969 -0.54426658 89.54853821 -0.53639221 C90.96478989 -0.56639313 90.96478989 -0.56639313 92.40965271 -0.59700012 C98.27116391 -0.53256805 101.35293046 0.57580113 105.59190083 4.67732143 C107.83572852 7.30536232 107.98979357 9.12400887 108.01898193 12.49209595 C108.02902756 13.40187195 108.03907318 14.31164795 108.04942322 15.24899292 C108.05525421 16.25003555 108.06108521 17.25107819 108.0670929 18.28245544 C108.07687668 19.33464264 108.08666046 20.38682983 108.09674072 21.47090149 C108.12673989 24.96512071 108.14809374 28.4593015 108.16694641 31.95359802 C108.17351824 33.14557611 108.18009007 34.33755421 108.18686104 35.56565285 C108.21947584 41.8760268 108.2439205 48.18638371 108.26338196 54.49681091 C108.28119398 59.72232113 108.31601077 64.94729162 108.36592102 70.17259216 C108.4260764 76.47731279 108.45685196 82.78153291 108.46655464 89.08652687 C108.47511922 91.48950836 108.4939617 93.89247614 108.52329826 96.29529381 C108.56217986 99.66139949 108.5632507 103.02555377 108.55537415 106.39183044 C108.57537476 107.38275192 108.59537537 108.3736734 108.61598206 109.3946228 C108.55319541 115.37895661 107.55638864 118.58744051 103.3416605 122.91031361 C100.76452763 125.08264056 99.00279737 125.29139183 95.71670532 125.32125854 C94.84900009 125.33130417 93.98129486 125.34134979 93.08729553 125.35169983 C91.65586212 125.36044632 91.65586212 125.36044632 90.19551086 125.36936951 C89.19209152 125.37915329 88.18867218 125.38893707 87.15484619 125.39901733 C83.82295567 125.42901347 80.49110546 125.45036974 77.15913391 125.46922302 C75.45391099 125.47908076 75.45391099 125.47908076 73.71423912 125.48913765 C67.69563923 125.52175145 61.6770572 125.5461961 55.65840149 125.56565857 C50.67539205 125.58346868 45.69294881 125.61828232 40.7101593 125.66819763 C34.69720848 125.72836695 28.68478258 125.75913046 22.67154503 125.76883125 C20.38020412 125.77739363 18.08887751 125.79623078 15.79770851 125.82557487 C12.58723963 125.86447511 9.37881563 125.86552512 6.16816711 125.85765076 C4.75191544 125.88765167 4.75191544 125.88765167 3.30705261 125.91825867 C-2.51017123 125.85431342 -5.62528074 124.7632434 -9.8751955 120.74159336 C-12.13851804 117.91619444 -12.2718549 115.22054583 -12.30227661 111.74687195 C-12.31232224 110.84413544 -12.32236786 109.94139893 -12.3327179 109.01130676 C-12.33854889 108.02321014 -12.34437988 107.03511353 -12.35038757 106.01707458 C-12.36017136 104.97449493 -12.36995514 103.93191528 -12.3800354 102.85774231 C-12.40999291 99.40142598 -12.43137531 95.94514832 -12.45024109 92.48875427 C-12.45681292 91.30872581 -12.46338474 90.12869736 -12.47015572 88.91291046 C-12.50275009 82.66737059 -12.52720142 76.4218478 -12.54667664 70.17625427 C-12.56449584 65.00608025 -12.59932709 59.83645099 -12.6492157 54.66648865 C-12.70937122 48.42545302 -12.7401462 42.1849229 -12.74984932 35.94361115 C-12.75841247 33.5657488 -12.77725147 31.18790028 -12.80659294 28.81020355 C-12.84547606 25.48012324 -12.84654543 22.15201527 -12.83866882 18.82176208 C-12.85866943 17.84176239 -12.87867004 16.8617627 -12.89927673 15.85206604 C-12.83611406 9.89613749 -11.81330436 6.71826292 -7.62495518 2.41473007 C-5.04957416 0.23730789 -3.28740948 0.02987869 0 0 Z " fill="#8ECCE3" transform="translate(484.1416473388672,161.83937072753906)"/>
<path d="M0 0 C0.86770523 -0.01004562 1.73541046 -0.02009125 2.62940979 -0.03044128 C3.58369873 -0.03627228 4.53798767 -0.04210327 5.52119446 -0.04811096 C6.5246138 -0.05789474 7.52803314 -0.06767853 8.56185913 -0.07775879 C11.89374965 -0.10775492 15.22559986 -0.12911119 18.55757141 -0.14796448 C20.26279433 -0.15782222 20.26279433 -0.15782222 22.0024662 -0.1678791 C28.02106609 -0.20049291 34.03964812 -0.22493756 40.05830383 -0.24440002 C45.04131327 -0.26221014 50.02375652 -0.29702378 55.00654602 -0.34693909 C61.01949684 -0.4071084 67.03192274 -0.43787191 73.04516029 -0.44757271 C75.3365012 -0.45613508 77.62782781 -0.47497223 79.91899681 -0.50431633 C83.12946569 -0.54321656 86.33788969 -0.54426658 89.54853821 -0.53639221 C90.96478989 -0.56639313 90.96478989 -0.56639313 92.40965271 -0.59700012 C98.27116391 -0.53256805 101.35293046 0.57580113 105.59190083 4.67732143 C107.83572852 7.30536232 107.98979357 9.12400887 108.01898193 12.49209595 C108.02902756 13.40187195 108.03907318 14.31164795 108.04942322 15.24899292 C108.05525421 16.25003555 108.06108521 17.25107819 108.0670929 18.28245544 C108.07687668 19.33464264 108.08666046 20.38682983 108.09674072 21.47090149 C108.12673989 24.96512071 108.14809374 28.4593015 108.16694641 31.95359802 C108.17351824 33.14557611 108.18009007 34.33755421 108.18686104 35.56565285 C108.21947584 41.8760268 108.2439205 48.18638371 108.26338196 54.49681091 C108.28119398 59.72232113 108.31601077 64.94729162 108.36592102 70.17259216 C108.4260764 76.47731279 108.45685196 82.78153291 108.46655464 89.08652687 C108.47511922 91.48950836 108.4939617 93.89247614 108.52329826 96.29529381 C108.56217986 99.66139949 108.5632507 103.02555377 108.55537415 106.39183044 C108.57537476 107.38275192 108.59537537 108.3736734 108.61598206 109.3946228 C108.55319541 115.37895661 107.55638864 118.58744051 103.3416605 122.91031361 C100.76452763 125.08264056 99.00279737 125.29139183 95.71670532 125.32125854 C94.84900009 125.33130417 93.98129486 125.34134979 93.08729553 125.35169983 C91.65586212 125.36044632 91.65586212 125.36044632 90.19551086 125.36936951 C89.19209152 125.37915329 88.18867218 125.38893707 87.15484619 125.39901733 C83.82295567 125.42901347 80.49110546 125.45036974 77.15913391 125.46922302 C75.45391099 125.47908076 75.45391099 125.47908076 73.71423912 125.48913765 C67.69563923 125.52175145 61.6770572 125.5461961 55.65840149 125.56565857 C50.67539205 125.58346868 45.69294881 125.61828232 40.7101593 125.66819763 C34.69720848 125.72836695 28.68478258 125.75913046 22.67154503 125.76883125 C20.38020412 125.77739363 18.08887751 125.79623078 15.79770851 125.82557487 C12.58723963 125.86447511 9.37881563 125.86552512 6.16816711 125.85765076 C4.75191544 125.88765167 4.75191544 125.88765167 3.30705261 125.91825867 C-2.51017123 125.85431342 -5.62528074 124.7632434 -9.8751955 120.74159336 C-12.13851804 117.91619444 -12.2718549 115.22054583 -12.30227661 111.74687195 C-12.31232224 110.84413544 -12.32236786 109.94139893 -12.3327179 109.01130676 C-12.33854889 108.02321014 -12.34437988 107.03511353 -12.35038757 106.01707458 C-12.36017136 104.97449493 -12.36995514 103.93191528 -12.3800354 102.85774231 C-12.40999291 99.40142598 -12.43137531 95.94514832 -12.45024109 92.48875427 C-12.45681292 91.30872581 -12.46338474 90.12869736 -12.47015572 88.91291046 C-12.50275009 82.66737059 -12.52720142 76.4218478 -12.54667664 70.17625427 C-12.56449584 65.00608025 -12.59932709 59.83645099 -12.6492157 54.66648865 C-12.70937122 48.42545302 -12.7401462 42.1849229 -12.74984932 35.94361115 C-12.75841247 33.5657488 -12.77725147 31.18790028 -12.80659294 28.81020355 C-12.84547606 25.48012324 -12.84654543 22.15201527 -12.83866882 18.82176208 C-12.85866943 17.84176239 -12.87867004 16.8617627 -12.89927673 15.85206604 C-12.83611406 9.89613749 -11.81330436 6.71826292 -7.62495518 2.41473007 C-5.04957416 0.23730789 -3.28740948 0.02987869 0 0 Z " fill="#B2DCEC" transform="translate(48.14164733886719,161.83937072753906)"/>
<path d="M0 0 C0.86770523 -0.01004562 1.73541046 -0.02009125 2.62940979 -0.03044128 C3.58369873 -0.03627228 4.53798767 -0.04210327 5.52119446 -0.04811096 C6.5246138 -0.05789474 7.52803314 -0.06767853 8.56185913 -0.07775879 C11.89374965 -0.10775492 15.22559986 -0.12911119 18.55757141 -0.14796448 C20.26279433 -0.15782222 20.26279433 -0.15782222 22.0024662 -0.1678791 C28.02106609 -0.20049291 34.03964812 -0.22493756 40.05830383 -0.24440002 C45.04131327 -0.26221014 50.02375652 -0.29702378 55.00654602 -0.34693909 C61.01949684 -0.4071084 67.03192274 -0.43787191 73.04516029 -0.44757271 C75.3365012 -0.45613508 77.62782781 -0.47497223 79.91899681 -0.50431633 C83.12946569 -0.54321656 86.33788969 -0.54426658 89.54853821 -0.53639221 C90.96478989 -0.56639313 90.96478989 -0.56639313 92.40965271 -0.59700012 C98.27116391 -0.53256805 101.35293046 0.57580113 105.59190083 4.67732143 C107.83572852 7.30536232 107.98979357 9.12400887 108.01898193 12.49209595 C108.02902756 13.40187195 108.03907318 14.31164795 108.04942322 15.24899292 C108.05525421 16.25003555 108.06108521 17.25107819 108.0670929 18.28245544 C108.07687668 19.33464264 108.08666046 20.38682983 108.09674072 21.47090149 C108.12673989 24.96512071 108.14809374 28.4593015 108.16694641 31.95359802 C108.17351824 33.14557611 108.18009007 34.33755421 108.18686104 35.56565285 C108.21947584 41.8760268 108.2439205 48.18638371 108.26338196 54.49681091 C108.28119398 59.72232113 108.31601077 64.94729162 108.36592102 70.17259216 C108.4260764 76.47731279 108.45685196 82.78153291 108.46655464 89.08652687 C108.47511922 91.48950836 108.4939617 93.89247614 108.52329826 96.29529381 C108.56217986 99.66139949 108.5632507 103.02555377 108.55537415 106.39183044 C108.57537476 107.38275192 108.59537537 108.3736734 108.61598206 109.3946228 C108.55319541 115.37895661 107.55638864 118.58744051 103.3416605 122.91031361 C100.76452763 125.08264056 99.00279737 125.29139183 95.71670532 125.32125854 C94.84900009 125.33130417 93.98129486 125.34134979 93.08729553 125.35169983 C91.65586212 125.36044632 91.65586212 125.36044632 90.19551086 125.36936951 C89.19209152 125.37915329 88.18867218 125.38893707 87.15484619 125.39901733 C83.82295567 125.42901347 80.49110546 125.45036974 77.15913391 125.46922302 C75.45391099 125.47908076 75.45391099 125.47908076 73.71423912 125.48913765 C67.69563923 125.52175145 61.6770572 125.5461961 55.65840149 125.56565857 C50.67539205 125.58346868 45.69294881 125.61828232 40.7101593 125.66819763 C34.69720848 125.72836695 28.68478258 125.75913046 22.67154503 125.76883125 C20.38020412 125.77739363 18.08887751 125.79623078 15.79770851 125.82557487 C12.58723963 125.86447511 9.37881563 125.86552512 6.16816711 125.85765076 C4.75191544 125.88765167 4.75191544 125.88765167 3.30705261 125.91825867 C-2.51017123 125.85431342 -5.62528074 124.7632434 -9.8751955 120.74159336 C-12.13851804 117.91619444 -12.2718549 115.22054583 -12.30227661 111.74687195 C-12.31232224 110.84413544 -12.32236786 109.94139893 -12.3327179 109.01130676 C-12.33854889 108.02321014 -12.34437988 107.03511353 -12.35038757 106.01707458 C-12.36017136 104.97449493 -12.36995514 103.93191528 -12.3800354 102.85774231 C-12.40999291 99.40142598 -12.43137531 95.94514832 -12.45024109 92.48875427 C-12.45681292 91.30872581 -12.46338474 90.12869736 -12.47015572 88.91291046 C-12.50275009 82.66737059 -12.52720142 76.4218478 -12.54667664 70.17625427 C-12.56449584 65.00608025 -12.59932709 59.83645099 -12.6492157 54.66648865 C-12.70937122 48.42545302 -12.7401462 42.1849229 -12.74984932 35.94361115 C-12.75841247 33.5657488 -12.77725147 31.18790028 -12.80659294 28.81020355 C-12.84547606 25.48012324 -12.84654543 22.15201527 -12.83866882 18.82176208 C-12.85866943 17.84176239 -12.87867004 16.8617627 -12.89927673 15.85206604 C-12.83611406 9.89613749 -11.81330436 6.71826292 -7.62495518 2.41473007 C-5.04957416 0.23730789 -3.28740948 0.02987869 0 0 Z " fill="#F63D8C" transform="translate(774.1416473388672,161.83937072753906)"/>
<path d="M0 0 C0.86770523 -0.01004562 1.73541046 -0.02009125 2.62940979 -0.03044128 C3.58369873 -0.03627228 4.53798767 -0.04210327 5.52119446 -0.04811096 C6.5246138 -0.05789474 7.52803314 -0.06767853 8.56185913 -0.07775879 C11.89374965 -0.10775492 15.22559986 -0.12911119 18.55757141 -0.14796448 C20.26279433 -0.15782222 20.26279433 -0.15782222 22.0024662 -0.1678791 C28.02106609 -0.20049291 34.03964812 -0.22493756 40.05830383 -0.24440002 C45.04131327 -0.26221014 50.02375652 -0.29702378 55.00654602 -0.34693909 C61.01949684 -0.4071084 67.03192274 -0.43787191 73.04516029 -0.44757271 C75.3365012 -0.45613508 77.62782781 -0.47497223 79.91899681 -0.50431633 C83.12946569 -0.54321656 86.33788969 -0.54426658 89.54853821 -0.53639221 C90.96478989 -0.56639313 90.96478989 -0.56639313 92.40965271 -0.59700012 C98.27116391 -0.53256805 101.35293046 0.57580113 105.59190083 4.67732143 C107.83572852 7.30536232 107.98979357 9.12400887 108.01898193 12.49209595 C108.02902756 13.40187195 108.03907318 14.31164795 108.04942322 15.24899292 C108.05525421 16.25003555 108.06108521 17.25107819 108.0670929 18.28245544 C108.07687668 19.33464264 108.08666046 20.38682983 108.09674072 21.47090149 C108.12673989 24.96512071 108.14809374 28.4593015 108.16694641 31.95359802 C108.17351824 33.14557611 108.18009007 34.33755421 108.18686104 35.56565285 C108.21947584 41.8760268 108.2439205 48.18638371 108.26338196 54.49681091 C108.28119398 59.72232113 108.31601077 64.94729162 108.36592102 70.17259216 C108.4260764 76.47731279 108.45685196 82.78153291 108.46655464 89.08652687 C108.47511922 91.48950836 108.4939617 93.89247614 108.52329826 96.29529381 C108.56217986 99.66139949 108.5632507 103.02555377 108.55537415 106.39183044 C108.57537476 107.38275192 108.59537537 108.3736734 108.61598206 109.3946228 C108.55366809 115.33390461 107.57223011 118.57600679 103.43931675 122.91031361 C100.66448106 125.10481034 98.03394374 125.290018 94.63441467 125.32125854 C93.77374893 125.33130417 92.91308319 125.34134979 92.02633667 125.35169983 C90.61432228 125.36044632 90.61432228 125.36044632 89.17378235 125.36936951 C87.68306465 125.38404518 87.68306465 125.38404518 86.16223145 125.39901733 C82.86824382 125.42896974 79.57429678 125.45035598 76.28022766 125.46922302 C75.15536201 125.47579485 74.03049637 125.48236668 72.87154388 125.48913765 C66.91777809 125.52173001 60.96403019 125.54618165 55.01020813 125.56565857 C50.08253465 125.5834762 45.15543291 125.61830497 40.22798157 125.66819763 C34.27871566 125.72836725 28.3299802 125.75913001 22.3804245 125.76883125 C20.11420268 125.77739211 17.84799526 125.79622554 15.58194733 125.82557487 C12.40750319 125.86447693 9.23512693 125.86552515 6.0605011 125.85765076 C4.6606321 125.88765167 4.6606321 125.88765167 3.23248291 125.91825867 C-2.55532034 125.85391743 -5.64194345 124.73677273 -9.87141037 120.74159336 C-12.13993868 117.91813453 -12.27184497 115.22167922 -12.30227661 111.74687195 C-12.31232224 110.84413544 -12.32236786 109.94139893 -12.3327179 109.01130676 C-12.33854889 108.02321014 -12.34437988 107.03511353 -12.35038757 106.01707458 C-12.36017136 104.97449493 -12.36995514 103.93191528 -12.3800354 102.85774231 C-12.40999291 99.40142598 -12.43137531 95.94514832 -12.45024109 92.48875427 C-12.45681292 91.30872581 -12.46338474 90.12869736 -12.47015572 88.91291046 C-12.50275009 82.66737059 -12.52720142 76.4218478 -12.54667664 70.17625427 C-12.56449584 65.00608025 -12.59932709 59.83645099 -12.6492157 54.66648865 C-12.70937122 48.42545302 -12.7401462 42.1849229 -12.74984932 35.94361115 C-12.75841247 33.5657488 -12.77725147 31.18790028 -12.80659294 28.81020355 C-12.84547606 25.48012324 -12.84654543 22.15201527 -12.83866882 18.82176208 C-12.85866943 17.84176239 -12.87867004 16.8617627 -12.89927673 15.85206604 C-12.83611406 9.89613749 -11.81330436 6.71826292 -7.62495518 2.41473007 C-5.04957416 0.23730789 -3.28740948 0.02987869 0 0 Z " fill="#F994BF" transform="translate(629.1416473388672,161.83937072753906)"/>
<path d="M0 0 C0.84246277 -0.00571014 1.68492554 -0.01142029 2.55291748 -0.01730347 C3.47915421 -0.01842133 4.40539093 -0.01953918 5.35969543 -0.02069092 C6.33385406 -0.02565582 7.3080127 -0.03062073 8.31169128 -0.03573608 C11.54620563 -0.05038376 14.78067089 -0.05716501 18.01521301 -0.06268311 C20.26003013 -0.06843362 22.50484723 -0.07419137 24.74966431 -0.07995605 C29.46326426 -0.09047428 34.17684711 -0.09631117 38.89045715 -0.09979248 C44.92528875 -0.10527058 50.95989396 -0.12928065 56.99465466 -0.15776443 C61.63497573 -0.17640789 66.27524255 -0.18159739 70.91559792 -0.18312836 C73.13990322 -0.18615293 75.36420762 -0.19417484 77.58847618 -0.20731354 C80.70509798 -0.22440491 83.82117053 -0.22248573 86.93782043 -0.21600342 C87.853936 -0.2252182 88.77005157 -0.23443298 89.71392822 -0.243927 C95.22351125 -0.20810506 99.10889958 0.48275824 103.97224426 3.14044189 C106.87891261 7.01599969 108.09354518 10.55317311 108.11268616 15.36437988 C108.1183963 16.22504562 108.12410645 17.08571136 108.12998962 17.97245789 C108.13166641 19.38447227 108.13166641 19.38447227 108.13337708 20.82501221 C108.14082443 22.3157299 108.14082443 22.3157299 108.14842224 23.83656311 C108.16304952 27.13057137 108.16984726 30.42453146 108.17536926 33.71856689 C108.18112078 36.00679526 108.18687851 38.29502362 108.19264221 40.58325195 C108.20315418 45.3850324 108.20899539 50.18679609 108.21247864 54.98858643 C108.21796006 61.13660861 108.24197993 67.28440895 108.27045059 73.4323616 C108.28909075 78.16103762 108.29428334 82.8896604 108.29581451 87.61837006 C108.29883905 89.88454143 108.30686086 92.15071192 108.31999969 94.41684723 C108.33708664 97.59083328 108.33517312 100.76427985 108.32868958 103.93829346 C108.33790436 104.87153946 108.34711914 105.80478546 108.35661316 106.76631165 C108.32115715 112.31754861 107.83960484 116.32359729 104.97224426 121.14044189 C100.02087824 125.7867894 95.38154126 125.72401907 88.94709778 125.6897583 C87.9528479 125.69998016 86.95859802 125.71020203 85.93421936 125.72073364 C82.65628303 125.74847381 79.37919008 125.74661658 76.10115051 125.74200439 C73.81720671 125.74978084 71.53326579 125.7584507 69.24932861 125.76797485 C64.46538409 125.78288781 59.6817348 125.78232503 54.89778137 125.77178955 C48.7730139 125.7601977 42.64945558 125.79407124 36.52488804 125.8404789 C31.80902057 125.86996922 27.09344387 125.87169506 22.37750053 125.86545944 C20.11969036 125.86648498 17.86186373 125.87694403 15.60414314 125.89708328 C12.44422862 125.92181282 9.28666335 125.90823472 6.12678528 125.8850708 C5.19825241 125.90035828 4.26971954 125.91564575 3.31304932 125.93139648 C-2.4984327 125.83742898 -5.54987388 124.67792645 -9.75584507 120.62207603 C-12.00823278 117.99829544 -12.15918731 116.17813891 -12.18838501 112.80897522 C-12.19843063 111.89919922 -12.20847626 110.98942322 -12.21882629 110.05207825 C-12.22465729 109.05103561 -12.23048828 108.04999298 -12.23649597 107.01861572 C-12.24627975 105.96642853 -12.25606354 104.91424133 -12.2661438 103.83016968 C-12.29614296 100.33595046 -12.31749681 96.84176966 -12.33634949 93.34747314 C-12.34292131 92.15549505 -12.34949314 90.96351696 -12.35626411 89.73541832 C-12.38887892 83.42504437 -12.41332358 77.11468745 -12.43278503 70.80426025 C-12.45059706 65.57875004 -12.48541385 60.35377955 -12.5353241 55.128479 C-12.59547947 48.82375838 -12.62625504 42.51953826 -12.63595772 36.2145443 C-12.64452229 33.8115628 -12.66336478 31.40859503 -12.69270134 29.00577736 C-12.73158294 25.63967168 -12.73265378 22.2755174 -12.72477722 18.90924072 C-12.74477783 17.91831924 -12.76477844 16.92739777 -12.78538513 15.90644836 C-12.72259849 9.92211456 -11.72579172 6.71363066 -7.51106358 2.39075756 C-4.96494858 0.24457631 -3.24531973 0.01315449 0 0 Z " fill="#F766A4" transform="translate(193.0277557373047,161.85955810546875)"/>
<path d="M0 0 C1.32 0 2.64 0 4 0 C4 1.65 4 3.3 4 5 C7.465 4.505 7.465 4.505 11 4 C11.33 2.68 11.66 1.36 12 0 C13.32 0 14.64 0 16 0 C16 1.65 16 3.3 16 5 C16.99 5 17.98 5 19 5 C19 6.32 19 7.64 19 9 C18.01 9 17.02 9 16 9 C16 11.64 16 14.28 16 17 C16.99 17 17.98 17 19 17 C19 18.32 19 19.64 19 21 C16.6568787 20.74438677 14.32156597 20.40729228 12 20 C10.79727181 17.59454362 10.89928528 16.05003047 10.9375 13.375 C10.95103516 12.14910156 10.95103516 12.14910156 10.96484375 10.8984375 C10.97644531 10.27195312 10.98804688 9.64546875 11 9 C8.69 9 6.38 9 4 9 C4.33 11.31 4.66 13.62 5 16 C5.99 16.33 6.98 16.66 8 17 C8 18.32 8 19.64 8 21 C5.125 21.125 5.125 21.125 2 21 C0 19 0 19 -0.1953125 16.6171875 C-0.16050781 15.25980469 -0.16050781 15.25980469 -0.125 13.875 C-0.10695313 12.96492188 -0.08890625 12.05484375 -0.0703125 11.1171875 C-0.04710937 10.41851562 -0.02390625 9.71984375 0 9 C-0.99 9 -1.98 9 -3 9 C-3 7.68 -3 6.36 -3 5 C-2.34 4.67 -1.68 4.34 -1 4 C-0.34786708 1.97536745 -0.34786708 1.97536745 0 0 Z " fill="#ABD9EA" transform="translate(554,45)"/>
<path d="M0 0 C11.05328967 -0.60732361 11.05328967 -0.60732361 15.3125 2.125 C17 5 17 5 17.0625 8.125 C15.82902416 11.4626405 15.20591603 12.4814082 12 14 C8.25 14.1875 8.25 14.1875 5 14 C5 16.97 5 19.94 5 23 C3.35 23 1.7 23 0 23 C0 15.41 0 7.82 0 0 Z " fill="#ABD9EA" transform="translate(492,43)"/>
<path d="M0 0 C2.57811243 1.40574973 3.95162546 2.79799737 6 5 C6 5.99 6 6.98 6 8 C4.25 8.75 4.25 8.75 2 9 C1.401875 8.34 0.80375 7.68 0.1875 7 C-0.534375 6.34 -1.25625 5.68 -2 5 C-6.35056675 5.00267685 -6.35056675 5.00267685 -10 7 C-10.23790731 9.06664006 -10.23790731 9.06664006 -10.25 11.4375 C-10.27578125 12.24058594 -10.3015625 13.04367188 -10.328125 13.87109375 C-10.21984375 14.57363281 -10.1115625 15.27617188 -10 16 C-7.10538099 18.36139302 -7.10538099 18.36139302 -3.4375 17.8125 C0.25825752 17.35160238 0.25825752 17.35160238 2 14 C3.32 14.33 4.64 14.66 6 15 C5.69025617 17.89094238 4.95829554 19.04691751 3 21.25 C-1.07190698 23.62527907 -4.39040748 23.96404483 -9 23 C-12.06583403 21.27267979 -14.40227558 19.19544885 -16 16 C-16.64060222 10.82942493 -16.89905059 7.19063457 -13.6875 2.9375 C-9.43771807 -0.12629627 -5.14678845 -0.88202966 0 0 Z " fill="#ACD9EA" transform="translate(419,43)"/>
<path d="M0 0 C3.38121991 2.44598887 4.76936783 3.89296559 5.625 8 C4.76936783 12.10703441 3.38121991 13.55401113 0 16 C-3.5 16.625 -3.5 16.625 -7 16 C-10.72536415 13.38431879 -11.83515672 11.9396067 -12.625 7.4375 C-12 4 -12 4 -9.9375 1.5625 C-6.22649861 -0.41143691 -4.14990033 -0.66694827 0 0 Z " fill="#ADDAEB" transform="translate(438,50)"/>
<path d="M0 0 C4.11594555 0.66149125 5.80471529 1.37716352 8.5 4.5625 C9.125 8 9.125 8 8.5 11.5625 C5.90783917 15.25436542 4.45850936 16.39133761 0 17.1875 C-4.4297642 16.39647068 -5.89210172 15.19775215 -8.5 11.5625 C-9.125 8.5625 -9.125 8.5625 -8.5 5.5625 C-5.88580444 1.91846982 -4.45776553 0.7164266 0 0 Z " fill="#ADDAEB" transform="translate(354.5,49.4375)"/>
<path d="M0 0 C3.34265205 1.20706879 3.94704566 1.92056849 6 5 C6.375 7.9375 6.375 7.9375 6 11 C3.34695278 14.27209157 1.39927121 15.84452542 -2.8125 16.3125 C-6.8794044 15.91378388 -8.35296205 15.11416229 -11 12 C-11.71730941 9.1770404 -11.71730941 6.8229596 -11 4 C-7.68815773 0.10371498 -5.00802417 -0.63932223 0 0 Z " fill="#ABD9EA" transform="translate(464,50)"/>
<path d="M0 0 C2.9375 2.25 2.9375 2.25 5 5 C5 6.32 5 7.64 5 9 C-0.445 9.495 -0.445 9.495 -6 10 C-1.23118866 11.03453058 -1.23118866 11.03453058 3 10 C3 11.32 3 12.64 3 14 C-0.7205836 16.48038907 -2.59796571 16.46337203 -7 16 C-10.26473709 13.85214665 -10.9058033 12.30475404 -12.0625 8.5625 C-12 5 -12 5 -10 2.0625 C-6.24750505 -0.51734028 -4.46801531 -0.79785988 0 0 Z " fill="#B1DCEC" transform="translate(586,50)"/>
<path d="M0 0 C3.6875 0.3125 3.6875 0.3125 5.90234375 1.94140625 C8.21025417 5.0068365 8.10232858 6.77144268 7.9375 10.5625 C7.90140625 11.64015625 7.8653125 12.7178125 7.828125 13.828125 C7.75851562 15.05789062 7.75851562 15.05789062 7.6875 16.3125 C5.75068839 16.39357583 3.8129066 16.45172475 1.875 16.5 C0.79605469 16.53480469 -0.28289063 16.56960937 -1.39453125 16.60546875 C-4.3125 16.3125 -4.3125 16.3125 -6.19921875 14.9609375 C-7.3125 13.3125 -7.3125 13.3125 -7.3125 10.75 C-6.3125 8.3125 -6.3125 8.3125 -4 7 C-1.3125 6.3125 -1.3125 6.3125 2.6875 6.3125 C2.6875 5.6525 2.6875 4.9925 2.6875 4.3125 C1.945 4.663125 1.2025 5.01375 0.4375 5.375 C-2.4447726 6.35759293 -3.52426345 6.3451802 -6.3125 5.3125 C-3.92091837 0.36989796 -3.92091837 0.36989796 0 0 Z " fill="#B1DCEC" transform="translate(516.3125,49.6875)"/>
<path d="M0 0 C3.4375 0.5625 3.4375 0.5625 5.875 2.25 C7.4375 4.5625 7.4375 4.5625 7.4375 9.5625 C3.8075 9.5625 0.1775 9.5625 -3.5625 9.5625 C-3.5625 10.2225 -3.5625 10.8825 -3.5625 11.5625 C-0.21997276 11.63677838 2.2410914 11.62796953 5.4375 10.5625 C6.0975 11.2225 6.7575 11.8825 7.4375 12.5625 C5.05804913 15.60819711 3.87891882 16.49026783 0 17.125 C-3.5625 16.5625 -3.5625 16.5625 -6.5 14.4375 C-8.5625 11.5625 -8.5625 11.5625 -9.1875 8.5625 C-8.06378731 3.1686791 -5.3834601 0.85002002 0 0 Z " fill="#B0DBEB" transform="translate(542.5625,49.4375)"/>
<path d="M0 0 C1.21236328 0.04060547 1.21236328 0.04060547 2.44921875 0.08203125 C3.06410156 0.11683594 3.67898438 0.15164062 4.3125 0.1875 C4.42082169 2.26968362 4.49823541 4.35349129 4.5625 6.4375 C4.60890625 7.59765625 4.6553125 8.7578125 4.703125 9.953125 C4.3125 13.1875 4.3125 13.1875 2.53125 15.625 C0.3125 17.1875 0.3125 17.1875 -3.4375 16.9375 C-4.51 16.69 -5.5825 16.4425 -6.6875 16.1875 C-6.6875 14.8675 -6.6875 13.5475 -6.6875 12.1875 C-7.01810951 9.88916642 -7.37936077 7.59887945 -7.76171875 5.30859375 C-7.6875 3.1875 -7.6875 3.1875 -6.5 1.421875 C-4.17613006 -0.16076056 -2.78511831 -0.1210921 0 0 Z " fill="#303030" transform="translate(673.6875,92.8125)"/>
<path d="M0 0 C1.98 0 3.96 0 6 0 C7.32 2.31 8.64 4.62 10 7 C12.77000825 3.67913229 12.77000825 3.67913229 15 0 C16.98 0 18.96 0 21 0 C20.50628906 0.73863281 20.01257813 1.47726563 19.50390625 2.23828125 C15.07593612 9.24997641 12.88522857 14.67087325 13 23 C11.35 23 9.7 23 8 23 C8.00902344 22.41734375 8.01804687 21.8346875 8.02734375 21.234375 C7.76816632 14.06755563 5.30067928 9.38034856 1.49609375 3.37109375 C0 1 0 1 0 0 Z " fill="#ADDAEB" transform="translate(328,43)"/>
<path d="M0 0 C1.21236328 0.04060547 1.21236328 0.04060547 2.44921875 0.08203125 C3.06410156 0.11683594 3.67898438 0.15164062 4.3125 0.1875 C4.42082169 2.26968362 4.49823541 4.35349129 4.5625 6.4375 C4.60890625 7.59765625 4.6553125 8.7578125 4.703125 9.953125 C4.3125 13.1875 4.3125 13.1875 2.53125 15.625 C0.3125 17.1875 0.3125 17.1875 -3.4375 16.9375 C-4.51 16.69 -5.5825 16.4425 -6.6875 16.1875 C-6.6875 14.1875 -6.6875 12.1875 -6.6875 10.1875 C-7.0175 9.8575 -7.3475 9.5275 -7.6875 9.1875 C-8.15344715 3.82910774 -8.15344715 3.82910774 -6.46484375 1.50390625 C-4.16603506 -0.19872788 -2.82767258 -0.12294229 0 0 Z " fill="#2A2A2A" transform="translate(405.6875,92.8125)"/>
<path d="M0 0 C1.32 0 2.64 0 4 0 C4.33 1.65 4.66 3.3 5 5 C5.763125 4.938125 6.52625 4.87625 7.3125 4.8125 C10 5 10 5 11.875 6.0625 C13.68060316 9.17214989 12.79952488 11.61739473 12 15 C10 17 10 17 7.6171875 17.1953125 C6.71226562 17.17210938 5.80734375 17.14890625 4.875 17.125 C3.26625 17.08375 1.6575 17.0425 0 17 C0 11.39 0 5.78 0 0 Z " fill="#2E2E2E" transform="translate(212,88)"/>
<path d="M0 0 C1.65 0 3.3 0 5 0 C5.33 3.63 5.66 7.26 6 11 C7.32 11 8.64 11 10 11 C10.33 7.37 10.66 3.74 11 0 C12.32 0 13.64 0 15 0 C15 5.28 15 10.56 15 16 C4.70694087 16.49014567 4.70694087 16.49014567 1.65625 14.375 C-0.48467716 11.30499125 -0.41110849 9.45549517 -0.25 5.75 C-0.21390625 4.67234375 -0.1778125 3.5946875 -0.140625 2.484375 C-0.09421875 1.66453125 -0.0478125 0.8446875 0 0 Z " fill="#ABD9EA" transform="translate(365,50)"/>
<path d="M0 0 C1.32 0 2.64 0 4 0 C4 5.61 4 11.22 4 17 C-4.21900826 17.48347107 -4.21900826 17.48347107 -7.625 15.375 C-9 13 -9 13 -8.9375 9.875 C-8 7 -8 7 -5 5 C-2.3125 4.875 -2.3125 4.875 0 5 C0 3.35 0 1.7 0 0 Z " fill="#2D2D2D" transform="translate(273,88)"/>
<path d="M0 0 C1.32 0 2.64 0 4 0 C4 0.66 4 1.32 4 2 C3.01 2 2.02 2 1 2 C1 2.66 1 3.32 1 4 C1.70125 3.505 2.4025 3.01 3.125 2.5 C6.41082318 0.78565747 8.34453935 0.59383771 12 1 C14 3 14 3 14.3125 6.9375 C14.2339218 9.48435809 14.13665953 10.75704973 12.875 13 C10.21065116 14.42098605 7.96508915 14.19767261 5 14 C5.33 13.01 5.66 12.02 6 11 C7.65 10.67 9.3 10.34 11 10 C11 9.67 11 9.34 11 9 C10.278125 9.061875 9.55625 9.12375 8.8125 9.1875 C5.47141026 8.96476068 3.72967245 7.8717754 1 6 C1 8.64 1 11.28 1 14 C0.34 14 -0.32 14 -1 14 C-1 11.36 -1 8.72 -1 6 C-1.66 6 -2.32 6 -3 6 C-3 5.34 -3 4.68 -3 4 C-2.34 4 -1.68 4 -1 4 C-0.67 2.68 -0.34 1.36 0 0 Z " fill="#FDECF4" transform="translate(660,243)"/>
<path d="M0 0 C3.4375 0.8125 3.4375 0.8125 5.4375 3.8125 C5.25 6.875 5.25 6.875 4.4375 9.8125 C1.4375 11.8125 1.4375 11.8125 -2.125 11.625 C-5.5625 10.8125 -5.5625 10.8125 -7.5625 7.8125 C-7.375 4.75 -7.375 4.75 -6.5625 1.8125 C-3.5625 -0.1875 -3.5625 -0.1875 0 0 Z " fill="#282828" transform="translate(536.5625,93.1875)"/>
<path d="M0 0 C3.4375 0.8125 3.4375 0.8125 5.4375 3.8125 C5.25 6.875 5.25 6.875 4.4375 9.8125 C1.4375 11.8125 1.4375 11.8125 -2.125 11.625 C-5.5625 10.8125 -5.5625 10.8125 -7.5625 7.8125 C-7.375 4.75 -7.375 4.75 -6.5625 1.8125 C-3.5625 -0.1875 -3.5625 -0.1875 0 0 Z " fill="#282828" transform="translate(419.5625,93.1875)"/>
<path d="M0 0 C3.4375 0.8125 3.4375 0.8125 5.4375 3.8125 C5.25 6.875 5.25 6.875 4.4375 9.8125 C1.4375 11.8125 1.4375 11.8125 -2.125 11.625 C-5.5625 10.8125 -5.5625 10.8125 -7.5625 7.8125 C-7.375 4.75 -7.375 4.75 -6.5625 1.8125 C-3.5625 -0.1875 -3.5625 -0.1875 0 0 Z " fill="#282828" transform="translate(292.5625,93.1875)"/>
<path d="M0 0 C6.75559498 -0.0965085 13.29207194 0.20075751 20 1 C19.57074219 1.84304687 19.57074219 1.84304687 19.1328125 2.703125 C17.98584069 5.02870923 16.92160206 7.37770201 15.875 9.75 C15.34519531 10.94882813 15.34519531 10.94882813 14.8046875 12.171875 C14.53914062 12.77515625 14.27359375 13.3784375 14 14 C13.34 14 12.68 14 12 14 C12.75 7.375 12.75 7.375 15 4 C9.06 3.01 9.06 3.01 3 2 C3 3.32 3 4.64 3 6 C4.98 6 6.96 6 9 6 C9 6.66 9 7.32 9 8 C7.02 8 5.04 8 3 8 C3 9.98 3 11.96 3 14 C2.01 14 1.02 14 0 14 C0 9.38 0 4.76 0 0 Z " fill="#FEF5F9" transform="translate(222,243)"/>
<path d="M0 0 C1.875 1.125 1.875 1.125 3 3 C3.39365568 6.14924548 3.52854531 8.11909116 1.875 10.875 C-0.88090884 12.52854531 -2.85075452 12.39365568 -6 12 C-7.875 10.875 -7.875 10.875 -9 9 C-9.39365568 5.85075452 -9.52854531 3.88090884 -7.875 1.125 C-5.11909116 -0.52854531 -3.14924548 -0.39365568 0 0 Z " fill="#191919" transform="translate(476,93)"/>
<path d="M0 0 C1.875 1.125 1.875 1.125 3 3 C3.39365568 6.14924548 3.52854531 8.11909116 1.875 10.875 C-0.88090884 12.52854531 -2.85075452 12.39365568 -6 12 C-7.875 10.875 -7.875 10.875 -9 9 C-9.39365568 5.85075452 -9.52854531 3.88090884 -7.875 1.125 C-5.11909116 -0.52854531 -3.14924548 -0.39365568 0 0 Z " fill="#191919" transform="translate(342,93)"/>
<path d="M0 0 C1 1 1 1 1.25 4.375 C1 8 1 8 -0.0625 10 C-3.22796524 11.63378851 -5.65020286 10.85267564 -9 10 C-11.14762184 6.77856724 -11.561068 5.7404533 -11 2 C-7.74648685 -1.90421578 -4.63335089 -1.04906058 0 0 Z " fill="#222222" transform="translate(457,94)"/>
<path d="M0 0 C1.8125 1.125 1.8125 1.125 3 3 C3.42888292 6.35958291 3.33264845 8.3347031 1.8125 11.375 C0 13 0 13 -2.5 13.4375 C-5 13 -5 13 -6.8125 11.9375 C-8.67036623 8.90624457 -8.37133265 6.46577141 -8 3 C-5.95177941 -0.34183359 -3.7548828 -0.56323242 0 0 Z " fill="#F0F8FB" transform="translate(569,244)"/>
<path d="M0 0 C2 2 2 2 2.375 4.9375 C2 8 2 8 0.3125 9.875 C-2.42360236 11.20607683 -3.99480842 11.46233717 -7 11 C-8.8125 9.875 -8.8125 9.875 -10 8 C-10.39310741 4.85514075 -10.47555213 2.86718329 -8.9375 0.0625 C-5.81651045 -1.6490104 -3.35466116 -0.79291991 0 0 Z " fill="#191919" transform="translate(394,94)"/>
<path d="M0 0 C1.65 0 3.3 0 5 0 C5 7.59 5 15.18 5 23 C3.35 23 1.7 23 0 23 C0 15.41 0 7.82 0 0 Z " fill="#ADDAEB" transform="translate(527,43)"/>
<path d="M0 0 C1.875 1.25 1.875 1.25 3 3 C3 4.32 3 5.64 3 7 C0.36 7 -2.28 7 -5 7 C-5 7.66 -5 8.32 -5 9 C-1.535 8.505 -1.535 8.505 2 8 C2 8.99 2 9.98 2 11 C-0.82883747 12.41441874 -2.87376745 12.31900332 -6 12 C-8.35210784 9.88310295 -8.91810953 8.55958485 -9.375 5.4375 C-9 3 -9 3 -7.875 1.1875 C-5.12844028 -0.55198782 -3.18153026 -0.39769128 0 0 Z " fill="#333333" transform="translate(756,93)"/>
<path d="M0 0 C1.875 1.25 1.875 1.25 3 3 C3 4.32 3 5.64 3 7 C0.36 7 -2.28 7 -5 7 C-5 7.66 -5 8.32 -5 9 C-1.535 8.505 -1.535 8.505 2 8 C2 8.99 2 9.98 2 11 C-0.82883747 12.41441874 -2.87376745 12.31900332 -6 12 C-8.35210784 9.88310295 -8.91810953 8.55958485 -9.375 5.4375 C-9 3 -9 3 -7.875 1.1875 C-5.12844028 -0.55198782 -3.18153026 -0.39769128 0 0 Z " fill="#333333" transform="translate(689,93)"/>
<path d="M0 0 C1.875 1.25 1.875 1.25 3 3 C3 4.32 3 5.64 3 7 C0.36 7 -2.28 7 -5 7 C-5 7.66 -5 8.32 -5 9 C-1.535 8.505 -1.535 8.505 2 8 C2 8.99 2 9.98 2 11 C-0.82883747 12.41441874 -2.87376745 12.31900332 -6 12 C-8.35210784 9.88310295 -8.91810953 8.55958485 -9.375 5.4375 C-9 3 -9 3 -7.875 1.1875 C-5.12844028 -0.55198782 -3.18153026 -0.39769128 0 0 Z " fill="#333333" transform="translate(201,93)"/>
<path d="M0 0 C1.875 1.25 1.875 1.25 3 3 C3 4.32 3 5.64 3 7 C0.36 7 -2.28 7 -5 7 C-5 7.66 -5 8.32 -5 9 C-1.535 8.505 -1.535 8.505 2 8 C2 8.99 2 9.98 2 11 C-0.82883747 12.41441874 -2.87376745 12.31900332 -6 12 C-8.35210784 9.88310295 -8.91810953 8.55958485 -9.375 5.4375 C-9 3 -9 3 -7.875 1.1875 C-5.12844028 -0.55198782 -3.18153026 -0.39769128 0 0 Z " fill="#333333" transform="translate(159,93)"/>
<path d="M0 0 C0.99 0 1.98 0 3 0 C3 1.32 3 2.64 3 4 C3.78375 3.95875 4.5675 3.9175 5.375 3.875 C8 4 8 4 10 6 C10.25 9 10.25 9 10 12 C8 14 8 14 6.0546875 14.1953125 C4.03645833 14.13020833 2.01822917 14.06510417 0 14 C0 9.38 0 4.76 0 0 Z " fill="#FDECF4" transform="translate(699,243)"/>
<path d="M0 0 C0.99 0 1.98 0 3 0 C3.33 1.65 3.66 3.3 4 5 C5.4540625 5.185625 5.4540625 5.185625 6.9375 5.375 C8.4534375 5.684375 8.4534375 5.684375 10 6 C11.20272819 8.40545638 11.10071472 9.94996953 11.0625 12.625 C11.05347656 13.44226563 11.04445313 14.25953125 11.03515625 15.1015625 C11.02355469 15.72804688 11.01195312 16.35453125 11 17 C9.68 17 8.36 17 7 17 C7 14.03 7 11.06 7 8 C6.01 8.33 5.02 8.66 4 9 C3.67 11.64 3.34 14.28 3 17 C2.01 17 1.02 17 0 17 C0 11.39 0 5.78 0 0 Z " fill="#252525" transform="translate(625,88)"/>
<path d="M0 0 C1.8125 1.25 1.8125 1.25 3 3 C3 4.32 3 5.64 3 7 C0.69 7.33 -1.62 7.66 -4 8 C-2.02 8 -0.04 8 2 8 C2 8.99 2 9.98 2 11 C-1.25 11.75 -1.25 11.75 -5 12 C-7.5 10.4375 -7.5 10.4375 -9 8 C-8.9375 4.875 -8.9375 4.875 -8 2 C-4.76746204 -0.15502531 -3.74849077 -0.46856135 0 0 Z " fill="#313131" transform="translate(804,93)"/>
<path d="M0 0 C1.8125 1.25 1.8125 1.25 3 3 C3 4.32 3 5.64 3 7 C0.69 7.33 -1.62 7.66 -4 8 C-2.02 8 -0.04 8 2 8 C2 8.99 2 9.98 2 11 C-1.25 11.75 -1.25 11.75 -5 12 C-7.5 10.4375 -7.5 10.4375 -9 8 C-8.9375 4.875 -8.9375 4.875 -8 2 C-4.76746204 -0.15502531 -3.74849077 -0.46856135 0 0 Z " fill="#313131" transform="translate(731,93)"/>
<path d="M0 0 C1.8125 1.25 1.8125 1.25 3 3 C3 4.32 3 5.64 3 7 C0.69 7.33 -1.62 7.66 -4 8 C-2.02 8 -0.04 8 2 8 C2 8.99 2 9.98 2 11 C-1.25 11.75 -1.25 11.75 -5 12 C-7.5 10.4375 -7.5 10.4375 -9 8 C-8.9375 4.875 -8.9375 4.875 -8 2 C-4.76746204 -0.15502531 -3.74849077 -0.46856135 0 0 Z " fill="#313131" transform="translate(134,93)"/>
<path d="M0 0 C3.625 0.375 3.625 0.375 7 1 C7 4.63 7 8.26 7 12 C0.25 13.125 0.25 13.125 -2 12 C-2.05395478 10.37536158 -2.09277195 8.75021459 -2.125 7.125 C-2.14820312 6.22007812 -2.17140625 5.31515625 -2.1953125 4.3828125 C-2 2 -2 2 0 0 Z " fill="#E7F4F9" transform="translate(112,244)"/>
<path d="M0 0 C3.625 0.375 3.625 0.375 7 1 C7 4.63 7 8.26 7 12 C0.25 13.125 0.25 13.125 -2 12 C-2.05395478 10.37536158 -2.09277195 8.75021459 -2.125 7.125 C-2.14820312 6.22007812 -2.17140625 5.31515625 -2.1953125 4.3828125 C-2 2 -2 2 0 0 Z " fill="#E6F4F9" transform="translate(89,244)"/>
<path d="M0 0 C1 1 1 1 1.09765625 3.28515625 C1.08605469 4.20167969 1.07445312 5.11820312 1.0625 6.0625 C1.05347656 6.98160156 1.04445313 7.90070313 1.03515625 8.84765625 C1.02355469 9.55792969 1.01195312 10.26820312 1 11 C-0.45792884 11.05399736 -1.91642712 11.09279177 -3.375 11.125 C-4.18710937 11.14820312 -4.99921875 11.17140625 -5.8359375 11.1953125 C-8 11 -8 11 -10 9 C-10 7 -10 7 -9 5 C-5.9375 3.75 -5.9375 3.75 -3 3 C-4.98 3 -6.96 3 -9 3 C-9 2.01 -9 1.02 -9 0 C-5.90842747 -1.54578627 -3.31526981 -0.60277633 0 0 Z " fill="#1F1F1F" transform="translate(783,94)"/>
<path d="M0 0 C1 1 1 1 1.09765625 3.28515625 C1.08605469 4.20167969 1.07445312 5.11820312 1.0625 6.0625 C1.05347656 6.98160156 1.04445313 7.90070313 1.03515625 8.84765625 C1.02355469 9.55792969 1.01195312 10.26820312 1 11 C-0.45792884 11.05399736 -1.91642712 11.09279177 -3.375 11.125 C-4.18710937 11.14820312 -4.99921875 11.17140625 -5.8359375 11.1953125 C-8 11 -8 11 -10 9 C-10 7 -10 7 -9 5 C-5.9375 3.75 -5.9375 3.75 -3 3 C-4.98 3 -6.96 3 -9 3 C-9 2.01 -9 1.02 -9 0 C-5.90842747 -1.54578627 -3.31526981 -0.60277633 0 0 Z " fill="#1F1F1F" transform="translate(648,94)"/>
<path d="M0 0 C1 1 1 1 1.09765625 3.28515625 C1.08605469 4.20167969 1.07445312 5.11820312 1.0625 6.0625 C1.05347656 6.98160156 1.04445313 7.90070313 1.03515625 8.84765625 C1.02355469 9.55792969 1.01195312 10.26820312 1 11 C-0.45792884 11.05399736 -1.91642712 11.09279177 -3.375 11.125 C-4.18710937 11.14820312 -4.99921875 11.17140625 -5.8359375 11.1953125 C-8 11 -8 11 -10 9 C-10 7 -10 7 -9 5 C-5.9375 3.75 -5.9375 3.75 -3 3 C-4.98 3 -6.96 3 -9 3 C-9 2.01 -9 1.02 -9 0 C-5.90842747 -1.54578627 -3.31526981 -0.60277633 0 0 Z " fill="#1F1F1F" transform="translate(587,94)"/>
<path d="M0 0 C3.3 0 6.6 0 10 0 C10 1.32 10 2.64 10 4 C9.35546875 4.22429688 8.7109375 4.44859375 8.046875 4.6796875 C5.75611148 5.82889456 5.75611148 5.82889456 5.390625 8.3828125 C5.34421875 9.28773437 5.2978125 10.19265625 5.25 11.125 C5.19328125 12.03507812 5.1365625 12.94515625 5.078125 13.8828125 C5.05234375 14.58148438 5.0265625 15.28015625 5 16 C3.35 16 1.7 16 0 16 C0 10.72 0 5.44 0 0 Z " fill="#ADDAEB" transform="translate(472,50)"/>
<path d="M0 0 C3.3 0 6.6 0 10 0 C10 1.32 10 2.64 10 4 C9.35546875 4.22429688 8.7109375 4.44859375 8.046875 4.6796875 C5.75611148 5.82889456 5.75611148 5.82889456 5.390625 8.3828125 C5.34421875 9.28773437 5.2978125 10.19265625 5.25 11.125 C5.19328125 12.03507812 5.1365625 12.94515625 5.078125 13.8828125 C5.05234375 14.58148438 5.0265625 15.28015625 5 16 C3.35 16 1.7 16 0 16 C0 10.72 0 5.44 0 0 Z " fill="#ADDAEB" transform="translate(384,50)"/>
<path d="M0 0 C1 1 1 1 1.0625 3.5625 C1.041875 4.366875 1.02125 5.17125 1 6 C-1.31 6.33 -3.62 6.66 -6 7 C-4.02 7 -2.04 7 0 7 C0 7.99 0 8.98 0 10 C-1 11 -1 11 -3.875 11.25 C-7 11 -7 11 -8.875 9.875 C-10.52854531 7.11909116 -10.39365568 5.14924548 -10 2 C-7.64880534 -2.28747261 -4.22461819 -0.93880404 0 0 Z " fill="#2B2B2B" transform="translate(261,94)"/>
<path d="M0 0 C0.99 0 1.98 0 3 0 C3.33 1.65 3.66 3.3 4 5 C4.78375 4.95875 5.5675 4.9175 6.375 4.875 C9 5 9 5 11 7 C11.1953125 9.3828125 11.1953125 9.3828125 11.125 12.125 C11.10695313 13.03507812 11.08890625 13.94515625 11.0703125 14.8828125 C11.04710937 15.58148438 11.02390625 16.28015625 11 17 C10.01 17 9.02 17 8 17 C7.67 14.36 7.34 11.72 7 9 C6.01 9 5.02 9 4 9 C3.67 11.64 3.34 14.28 3 17 C2.01 17 1.02 17 0 17 C0 11.39 0 5.78 0 0 Z " fill="#171717" transform="translate(709,88)"/>
<path d="M0 0 C0.99 0 1.98 0 3 0 C3.33 1.65 3.66 3.3 4 5 C4.78375 4.95875 5.5675 4.9175 6.375 4.875 C9 5 9 5 11 7 C11.1953125 9.3828125 11.1953125 9.3828125 11.125 12.125 C11.10695313 13.03507812 11.08890625 13.94515625 11.0703125 14.8828125 C11.04710938 15.58148438 11.02390625 16.28015625 11 17 C10.01 17 9.02 17 8 17 C7.67 14.36 7.34 11.72 7 9 C6.01 9 5.02 9 4 9 C3.67 11.64 3.34 14.28 3 17 C2.01 17 1.02 17 0 17 C0 11.39 0 5.78 0 0 Z " fill="#171717" transform="translate(112,88)"/>
<path d="M0 0 C2.875 -0.125 2.875 -0.125 6 0 C8 2 8 2 8.1953125 4.3828125 C8.17210937 5.28773437 8.14890625 6.19265625 8.125 7.125 C8.10695312 8.03507812 8.08890625 8.94515625 8.0703125 9.8828125 C8.04710937 10.58148438 8.02390625 11.28015625 8 12 C0.25 12.125 0.25 12.125 -2 11 C-2 9.35 -2 7.7 -2 6 C1.465 5.505 1.465 5.505 5 5 C5 4.34 5 3.68 5 3 C2.69 3.33 0.38 3.66 -2 4 C-1.34 2.68 -0.68 1.36 0 0 Z " fill="#2B2B2B" transform="translate(229,93)"/>
<path d="M0 0 C2.875 -0.125 2.875 -0.125 6 0 C8 2 8 2 8.1953125 4.3828125 C8.17210937 5.28773437 8.14890625 6.19265625 8.125 7.125 C8.10695312 8.03507812 8.08890625 8.94515625 8.0703125 9.8828125 C8.04710937 10.58148438 8.02390625 11.28015625 8 12 C0.25 12.125 0.25 12.125 -2 11 C-2 9.35 -2 7.7 -2 6 C1.465 5.505 1.465 5.505 5 5 C5 4.34 5 3.68 5 3 C2.69 3.33 0.38 3.66 -2 4 C-1.34 2.68 -0.68 1.36 0 0 Z " fill="#2B2B2B" transform="translate(172,93)"/>
<path d="M0 0 C0.99 0.33 1.98 0.66 3 1 C2.67 1.66 2.34 2.32 2 3 C2.99 3 3.98 3 5 3 C5 2.01 5 1.02 5 0 C5.66 0 6.32 0 7 0 C7 0.99 7 1.98 7 3 C7.66 3 8.32 3 9 3 C9 3.66 9 4.32 9 5 C8.01 5 7.02 5 6 5 C6 5.99 6 6.98 6 8 C6.66 8 7.32 8 8 8 C8 8.66 8 9.32 8 10 C7.01 10 6.02 10 5 10 C5 10.99 5 11.98 5 13 C4.01 12.67 3.02 12.34 2 12 C2.33 11.34 2.66 10.68 3 10 C2.34 10 1.68 10 1 10 C0.67 10.99 0.34 11.98 0 13 C-0.66 13 -1.32 13 -2 13 C-2 12.01 -2 11.02 -2 10 C-2.66 10 -3.32 10 -4 10 C-4 9.34 -4 8.68 -4 8 C-3.01 8 -2.02 8 -1 8 C-1 7.01 -1 6.02 -1 5 C-1.66 5 -2.32 5 -3 5 C-3 4.34 -3 3.68 -3 3 C-2.01 3 -1.02 3 0 3 C0 2.01 0 1.02 0 0 Z " fill="#FCD3E5" transform="translate(792,244)"/>
<path d="M0 0 C0.99 0.33 1.98 0.66 3 1 C2.67 1.66 2.34 2.32 2 3 C2.66 3 3.32 3 4 3 C4.33 2.01 4.66 1.02 5 0 C5.66 0 6.32 0 7 0 C7 0.66 7 1.32 7 2 C7.66 2.33 8.32 2.66 9 3 C9 3.66 9 4.32 9 5 C8.01 5 7.02 5 6 5 C6 5.66 6 6.32 6 7 C6.66 7.33 7.32 7.66 8 8 C8 8.66 8 9.32 8 10 C7.01 10 6.02 10 5 10 C5 10.99 5 11.98 5 13 C4.01 13 3.02 13 2 13 C2 12.34 2 11.68 2 11 C1.34 10.67 0.68 10.34 0 10 C0 10.99 0 11.98 0 13 C-0.66 13 -1.32 13 -2 13 C-2 12.01 -2 11.02 -2 10 C-2.66 10 -3.32 10 -4 10 C-4 9.34 -4 8.68 -4 8 C-3.01 8 -2.02 8 -1 8 C-1 7.01 -1 6.02 -1 5 C-1.66 5 -2.32 5 -3 5 C-3 4.34 -3 3.68 -3 3 C-2.01 3 -1.02 3 0 3 C0 2.01 0 1.02 0 0 Z " fill="#FDE8F1" transform="translate(647,244)"/>
<path d="M0 0 C0.66 0 1.32 0 2 0 C2 0.99 2 1.98 2 3 C2.66 3 3.32 3 4 3 C4 2.01 4 1.02 4 0 C4.99 0 5.98 0 7 0 C7 0.66 7 1.32 7 2 C7.66 2.33 8.32 2.66 9 3 C9 3.66 9 4.32 9 5 C8.01 5 7.02 5 6 5 C6 5.66 6 6.32 6 7 C6.66 7.33 7.32 7.66 8 8 C8 8.66 8 9.32 8 10 C7.01 10.33 6.02 10.66 5 11 C4.67 11.66 4.34 12.32 4 13 C3.34 13 2.68 13 2 13 C2 12.01 2 11.02 2 10 C1.34 10 0.68 10 0 10 C0 10.99 0 11.98 0 13 C-0.99 12.67 -1.98 12.34 -3 12 C-2.67 11.34 -2.34 10.68 -2 10 C-2.66 10 -3.32 10 -4 10 C-4 9.34 -4 8.68 -4 8 C-3.01 8 -2.02 8 -1 8 C-1 7.01 -1 6.02 -1 5 C-1.66 5 -2.32 5 -3 5 C-3 4.34 -3 3.68 -3 3 C-2.01 3 -1.02 3 0 3 C0 2.01 0 1.02 0 0 Z " fill="#E5F3F8" transform="translate(502,244)"/>
<path d="M0 0 C0.66 0 1.32 0 2 0 C2 0.99 2 1.98 2 3 C2.66 3 3.32 3 4 3 C4 2.01 4 1.02 4 0 C4.99 0 5.98 0 7 0 C7 0.66 7 1.32 7 2 C7.66 2.33 8.32 2.66 9 3 C9 3.66 9 4.32 9 5 C8.01 5 7.02 5 6 5 C6 5.66 6 6.32 6 7 C6.66 7.33 7.32 7.66 8 8 C8 8.66 8 9.32 8 10 C7.01 10.33 6.02 10.66 5 11 C4.67 11.66 4.34 12.32 4 13 C3.34 13 2.68 13 2 13 C2 12.01 2 11.02 2 10 C1.34 10 0.68 10 0 10 C0 10.99 0 11.98 0 13 C-0.99 12.67 -1.98 12.34 -3 12 C-2.67 11.34 -2.34 10.68 -2 10 C-2.66 10 -3.32 10 -4 10 C-4 9.34 -4 8.68 -4 8 C-3.01 8 -2.02 8 -1 8 C-1 7.01 -1 6.02 -1 5 C-1.66 5 -2.32 5 -3 5 C-3 4.34 -3 3.68 -3 3 C-2.01 3 -1.02 3 0 3 C0 2.01 0 1.02 0 0 Z " fill="#EEF7FA" transform="translate(66,244)"/>
<path d="M0 0 C6.72 0.72 6.72 0.72 8 2 C8.46023689 9.13367174 8.46023689 9.13367174 6.9375 12 C3.97912322 13.52690415 1.26283401 13.18468872 -2 13 C-1.67 12.01 -1.34 11.02 -1 10 C0.65 10 2.3 10 4 10 C4.33 9.34 4.66 8.68 5 8 C4.21625 8.04125 3.4325 8.0825 2.625 8.125 C0 8 0 8 -2 6 C-1.44444444 1.44444444 -1.44444444 1.44444444 0 0 Z " fill="#FEECF4" transform="translate(266,244)"/>
<path d="M0 0 C1.32 0 2.64 0 4 0 C5.65 4.62 7.3 9.24 9 14 C7.68 13.67 6.36 13.34 5 13 C5 12.01 5 11.02 5 10 C3.02 10.33 1.04 10.66 -1 11 C-1.33 11.99 -1.66 12.98 -2 14 C-2.99 14 -3.98 14 -5 14 C-4.54636829 12.41531323 -4.08688548 10.83230076 -3.625 9.25 C-3.36976563 8.36828125 -3.11453125 7.4865625 -2.8515625 6.578125 C-2.0790066 4.23919428 -1.16374324 2.16557438 0 0 Z " fill="#FEEEF5" transform="translate(280,243)"/>
<path d="M0 0 C6.8359375 -0.1953125 6.8359375 -0.1953125 9 0 C11 2 11 2 11.1953125 4.3828125 C11.17210937 5.28773437 11.14890625 6.19265625 11.125 7.125 C11.10695313 8.03507812 11.08890625 8.94515625 11.0703125 9.8828125 C11.04710937 10.58148438 11.02390625 11.28015625 11 12 C10.01 12 9.02 12 8 12 C7.67 9.36 7.34 6.72 7 4 C6.34 4 5.68 4 5 4 C4.67 6.64 4.34 9.28 4 12 C2.68 12 1.36 12 0 12 C0 8.04 0 4.08 0 0 Z " fill="#383838" transform="translate(300,93)"/>
<path d="M0 0 C0 0.66 0 1.32 0 2 C-1.98 2.66 -3.96 3.32 -6 4 C-4.02 4.66 -2.04 5.32 0 6 C0.125 8.375 0.125 8.375 0 11 C-2 13 -2 13 -4.4375 13.3125 C-7 13 -7 13 -8.8125 11.875 C-10.57844751 9.08666183 -10.46181576 7.23271032 -10 4 C-7.16463433 -0.14399597 -4.86205069 -0.44200461 0 0 Z " fill="#FEF6F9" transform="translate(697,244)"/>
<path d="M0 0 C0 0.66 0 1.32 0 2 C-2.31 2.33 -4.62 2.66 -7 3 C-7 3.66 -7 4.32 -7 5 C-6.21625 4.95875 -5.4325 4.9175 -4.625 4.875 C-2 5 -2 5 0 7 C-0.55555556 11.55555556 -0.55555556 11.55555556 -2 13 C-8.72 12.28 -8.72 12.28 -10 11 C-10.36395977 7.14202645 -10.56007535 4.84011302 -8.375 1.5625 C-5.397402 -0.39644605 -3.49644963 -0.31785906 0 0 Z " fill="#F1F9FB" transform="translate(549,244)"/>
<path d="M0 0 C0.66 0 1.32 0 2 0 C2 0.99 2 1.98 2 3 C2.680625 2.2575 2.680625 2.2575 3.375 1.5 C5 0 5 0 7 0 C7 0.66 7 1.32 7 2 C7.66 2.33 8.32 2.66 9 3 C9 3.66 9 4.32 9 5 C8.01 5 7.02 5 6 5 C6 5.66 6 6.32 6 7 C6.66 7.33 7.32 7.66 8 8 C8 8.66 8 9.32 8 10 C7.01 10.33 6.02 10.66 5 11 C4.67 11.66 4.34 12.32 4 13 C3.34 13 2.68 13 2 13 C2 12.34 2 11.68 2 11 C1.34 10.67 0.68 10.34 0 10 C0 10.99 0 11.98 0 13 C-0.66 13 -1.32 13 -2 13 C-2 12.01 -2 11.02 -2 10 C-2.66 10 -3.32 10 -4 10 C-4 9.34 -4 8.68 -4 8 C-3.01 8 -2.02 8 -1 8 C-1 7.01 -1 6.02 -1 5 C-1.66 5 -2.32 5 -3 5 C-3 4.34 -3 3.68 -3 3 C-2.01 3 -1.02 3 0 3 C0 2.01 0 1.02 0 0 Z " fill="#FCDEEB" transform="translate(211,244)"/>
<path d="M0 0 C0.99 0 1.98 0 3 0 C3.33 2.64 3.66 5.28 4 8 C4.99 8.33 5.98 8.66 7 9 C7 6.03 7 3.06 7 0 C8.32 0 9.64 0 11 0 C11 3.96 11 7.92 11 12 C4.1640625 12.1953125 4.1640625 12.1953125 2 12 C0 10 0 10 -0.1953125 7.6171875 C-0.17210937 6.71226563 -0.14890625 5.80734375 -0.125 4.875 C-0.10695313 3.96492188 -0.08890625 3.05484375 -0.0703125 2.1171875 C-0.04710937 1.41851562 -0.02390625 0.71984375 0 0 Z " fill="#252525" transform="translate(348,93)"/>
<path d="M0 0 C1.32 0 2.64 0 4 0 C4 7.59 4 15.18 4 23 C2.68 23 1.36 23 0 23 C0 15.41 0 7.82 0 0 Z " fill="#A8D8EA" transform="translate(446,43)"/>
<path d="M0 0 C0.66 0 1.32 0 2 0 C2 4.62 2 9.24 2 14 C-0.31 14 -2.62 14 -5 14 C-7 12 -7 12 -7.25 9 C-7 6 -7 6 -5 4 C-2.375 3.875 -2.375 3.875 0 4 C0 2.68 0 1.36 0 0 Z " fill="#FEF4F8" transform="translate(859,243)"/>
<path d="M0 0 C0.66 0.33 1.32 0.66 2 1 C1.67 1.66 1.34 2.32 1 3 C1.99 3 2.98 3 4 3 C4 2.01 4 1.02 4 0 C4.66 0 5.32 0 6 0 C6 0.99 6 1.98 6 3 C6.66 3 7.32 3 8 3 C8 3.66 8 4.32 8 5 C7.01 5 6.02 5 5 5 C5 5.99 5 6.98 5 8 C5.66 8 6.32 8 7 8 C7 8.66 7 9.32 7 10 C6.01 10 5.02 10 4 10 C4 10.99 4 11.98 4 13 C3.34 13 2.68 13 2 13 C2 12.01 2 11.02 2 10 C1.01 10 0.02 10 -1 10 C-1 10.99 -1 11.98 -1 13 C-1.66 12.67 -2.32 12.34 -3 12 C-2.67 11.34 -2.34 10.68 -2 10 C-2.99 10 -3.98 10 -5 10 C-5 9.34 -5 8.68 -5 8 C-4.01 8 -3.02 8 -2 8 C-2 7.01 -2 6.02 -2 5 C-2.66 5 -3.32 5 -4 5 C-4 4.34 -4 3.68 -4 3 C-3.01 3 -2.02 3 -1 3 C-0.67 2.01 -0.34 1.02 0 0 Z " fill="#4A4F51" transform="translate(357,244)"/>
<path d="M0 0 C0.66 0 1.32 0 2 0 C2 4.62 2 9.24 2 14 C-0.31 14 -2.62 14 -5 14 C-7 12 -7 12 -7.25 9 C-7 6 -7 6 -5 4 C-2.375 3.875 -2.375 3.875 0 4 C0 2.68 0 1.36 0 0 Z " fill="#323435" transform="translate(374,243)"/>
<path d="M0 0 C2.375 0.25 2.375 0.25 5 1 C6.3125 3.0625 6.3125 3.0625 7 5 C7.433125 4.175 7.86625 3.35 8.3125 2.5 C8.869375 1.675 9.42625 0.85 10 0 C10.99 0 11.98 0 13 0 C11.1668733 5.99932374 8.92678249 11.44920563 6 17 C5.01 17 4.02 17 3 17 C3.2475 15.865625 3.495 14.73125 3.75 13.5625 C4.45333965 8.32027515 2.44462327 4.53252041 0 0 Z " fill="#212121" transform="translate(319,93)"/>
<path d="M0 0 C3.24208567 0.35049575 4.61527704 0.56221181 6.8125 3.0625 C7.204375 3.701875 7.59625 4.34125 8 5 C8.99 3.35 9.98 1.7 11 0 C12.32 0.33 13.64 0.66 15 1 C14.65066406 1.4846875 14.30132813 1.969375 13.94140625 2.46875 C10.57638044 7.42572853 9.32047616 11.01777843 9 17 C8.01 17 7.02 17 6 17 C5.85304688 16.03900391 5.85304688 16.03900391 5.703125 15.05859375 C4.69296191 9.21532275 3.24025175 4.96838601 0 0 Z " fill="#1A1A1A" transform="translate(515,88)"/>
<path d="M0 0 C0.99 0 1.98 0 3 0 C3.33 2.64 3.66 5.28 4 8 C4.99 8 5.98 8 7 8 C7.33 5.36 7.66 2.72 8 0 C8.99 0 9.98 0 11 0 C11 3.96 11 7.92 11 12 C4.1640625 12.1953125 4.1640625 12.1953125 2 12 C0 10 0 10 -0.1953125 7.6171875 C-0.17210937 6.71226563 -0.14890625 5.80734375 -0.125 4.875 C-0.10695313 3.96492188 -0.08890625 3.05484375 -0.0703125 2.1171875 C-0.04710937 1.41851562 -0.02390625 0.71984375 0 0 Z " fill="#191919" transform="translate(544,93)"/>
<path d="M0 0 C6.8359375 -0.1953125 6.8359375 -0.1953125 9 0 C11 2 11 2 11.1953125 4.3828125 C11.17210937 5.28773437 11.14890625 6.19265625 11.125 7.125 C11.10695313 8.03507812 11.08890625 8.94515625 11.0703125 9.8828125 C11.04710937 10.58148438 11.02390625 11.28015625 11 12 C10.01 12 9.02 12 8 12 C7.67 9.36 7.34 6.72 7 4 C6.01 4 5.02 4 4 4 C3.67 6.64 3.34 9.28 3 12 C2.01 12 1.02 12 0 12 C0 8.04 0 4.08 0 0 Z " fill="#181818" transform="translate(652,93)"/>
<path d="M0 0 C6.8359375 -0.1953125 6.8359375 -0.1953125 9 0 C11 2 11 2 11.1953125 4.3828125 C11.17210937 5.28773437 11.14890625 6.19265625 11.125 7.125 C11.10695313 8.03507812 11.08890625 8.94515625 11.0703125 9.8828125 C11.04710937 10.58148438 11.02390625 11.28015625 11 12 C10.01 12 9.02 12 8 12 C7.67 9.36 7.34 6.72 7 4 C6.01 4 5.02 4 4 4 C3.67 6.64 3.34 9.28 3 12 C2.01 12 1.02 12 0 12 C0 8.04 0 4.08 0 0 Z " fill="#181818" transform="translate(591,93)"/>
<path d="M0 0 C4.62 0 9.24 0 14 0 C14 0.99 14 1.98 14 3 C12.02 3 10.04 3 8 3 C8 7.62 8 12.24 8 17 C7.01 17 6.02 17 5 17 C5 12.38 5 7.76 5 3 C3.35 3 1.7 3 0 3 C0 2.01 0 1.02 0 0 Z " fill="#121212" transform="translate(96,88)"/>
<path d="M0 0 C1.32 0 2.64 0 4 0 C4 1.32 4 2.64 4 4 C4.66 4 5.32 4 6 4 C6 4.99 6 5.98 6 7 C5.34 7 4.68 7 4 7 C4 8.98 4 10.96 4 13 C4.66 13 5.32 13 6 13 C6 13.99 6 14.98 6 16 C1.125 15.125 1.125 15.125 0 14 C-0.04092937 11.66702567 -0.04241723 9.33294775 0 7 C-0.66 7 -1.32 7 -2 7 C-2 6.01 -2 5.02 -2 4 C-1.34 4 -0.68 4 0 4 C0 2.68 0 1.36 0 0 Z " fill="#2D2D2D" transform="translate(701,89)"/>
<path d="M0 0 C0 1.32 0 2.64 0 4 C-2.97 3.505 -2.97 3.505 -6 3 C-6 4.32 -6 5.64 -6 7 C-4.02 6.67 -2.04 6.34 0 6 C0 7.32 0 8.64 0 10 C-6.40096618 11.32850242 -6.40096618 11.32850242 -8.9375 9.9375 C-10.47555213 7.13281671 -10.39310741 5.14485925 -10 2 C-7.64463991 -2.2950684 -4.23605512 -0.87918125 0 0 Z " fill="#1E1E1E" transform="translate(621,94)"/>
<path d="M0 0 C0 1.32 0 2.64 0 4 C-0.66 4 -1.32 4 -2 4 C-2 3.34 -2 2.68 -2 2 C-3.32 2.33 -4.64 2.66 -6 3 C-6 4.32 -6 5.64 -6 7 C-4.68 7.33 -3.36 7.66 -2 8 C-2 7.34 -2 6.68 -2 6 C-1.01 6 -0.02 6 1 6 C0.125 9.875 0.125 9.875 -1 11 C-6.24050633 11.4556962 -6.24050633 11.4556962 -8.875 9.875 C-10.52854531 7.11909116 -10.39365568 5.14924548 -10 2 C-7.64463991 -2.2950684 -4.23605512 -0.87918125 0 0 Z " fill="#1F1F1F" transform="translate(574,94)"/>
<path d="M0 0 C0 1.32 0 2.64 0 4 C-2.97 3.505 -2.97 3.505 -6 3 C-6 4.32 -6 5.64 -6 7 C-4.02 6.67 -2.04 6.34 0 6 C0 7.32 0 8.64 0 10 C-6.40096618 11.32850242 -6.40096618 11.32850242 -8.9375 9.9375 C-10.47555213 7.13281671 -10.39310741 5.14485925 -10 2 C-7.64463991 -2.2950684 -4.23605512 -0.87918125 0 0 Z " fill="#1E1E1E" transform="translate(443,94)"/>
<path d="M0 0 C1.2065625 0.0309375 1.2065625 0.0309375 2.4375 0.0625 C3.0975 1.3825 3.7575 2.7025 4.4375 4.0625 C2.7875 4.0625 1.1375 4.0625 -0.5625 4.0625 C1.9125 5.0525 1.9125 5.0525 4.4375 6.0625 C3.5625 10.9375 3.5625 10.9375 2.4375 12.0625 C0.77132885 12.10313832 -0.89638095 12.105221 -2.5625 12.0625 C-3.2225 10.7425 -3.8825 9.4225 -4.5625 8.0625 C-3.2425 8.0625 -1.9225 8.0625 -0.5625 8.0625 C-1.8825 7.4025 -3.2025 6.7425 -4.5625 6.0625 C-3.48963568 0.08511307 -3.48963568 0.08511307 0 0 Z " fill="#202020" transform="translate(740.5625,92.9375)"/>
<path d="M0 0 C1.2065625 0.0309375 1.2065625 0.0309375 2.4375 0.0625 C3.0975 1.3825 3.7575 2.7025 4.4375 4.0625 C2.7875 4.0625 1.1375 4.0625 -0.5625 4.0625 C1.9125 5.0525 1.9125 5.0525 4.4375 6.0625 C3.5625 10.9375 3.5625 10.9375 2.4375 12.0625 C0.77132885 12.10313832 -0.89638095 12.105221 -2.5625 12.0625 C-3.2225 10.7425 -3.8825 9.4225 -4.5625 8.0625 C-3.2425 8.0625 -1.9225 8.0625 -0.5625 8.0625 C-1.8825 7.4025 -3.2025 6.7425 -4.5625 6.0625 C-3.48963568 0.08511307 -3.48963568 0.08511307 0 0 Z " fill="#202020" transform="translate(495.5625,92.9375)"/>
<path d="M0 0 C1.2065625 0.0309375 1.2065625 0.0309375 2.4375 0.0625 C3.0975 1.3825 3.7575 2.7025 4.4375 4.0625 C2.7875 4.0625 1.1375 4.0625 -0.5625 4.0625 C1.9125 5.0525 1.9125 5.0525 4.4375 6.0625 C3.5625 10.9375 3.5625 10.9375 2.4375 12.0625 C0.77132885 12.10313832 -0.89638095 12.105221 -2.5625 12.0625 C-3.2225 10.7425 -3.8825 9.4225 -4.5625 8.0625 C-3.2425 8.0625 -1.9225 8.0625 -0.5625 8.0625 C-1.8825 7.4025 -3.2025 6.7425 -4.5625 6.0625 C-3.48963568 0.08511307 -3.48963568 0.08511307 0 0 Z " fill="#202020" transform="translate(244.5625,92.9375)"/>
<path d="M0 0 C1.2065625 0.0309375 1.2065625 0.0309375 2.4375 0.0625 C3.0975 1.3825 3.7575 2.7025 4.4375 4.0625 C2.7875 4.0625 1.1375 4.0625 -0.5625 4.0625 C1.9125 5.0525 1.9125 5.0525 4.4375 6.0625 C3.5625 10.9375 3.5625 10.9375 2.4375 12.0625 C0.77132885 12.10313832 -0.89638095 12.105221 -2.5625 12.0625 C-3.2225 10.7425 -3.8825 9.4225 -4.5625 8.0625 C-3.2425 8.0625 -1.9225 8.0625 -0.5625 8.0625 C-1.8825 7.4025 -3.2025 6.7425 -4.5625 6.0625 C-3.48963568 0.08511307 -3.48963568 0.08511307 0 0 Z " fill="#202020" transform="translate(143.5625,92.9375)"/>
<path d="M0 0 C0.99 0 1.98 0 3 0 C3 2.64 3 5.28 3 8 C3.66 8 4.32 8 5 8 C5 8.66 5 9.32 5 10 C4.34 10 3.68 10 3 10 C3 10.99 3 11.98 3 13 C2.34 13 1.68 13 1 13 C1 12.01 1 11.02 1 10 C-1.31 10 -3.62 10 -6 10 C-5.49111733 5.58968355 -2.96550928 3.10672401 0 0 Z " fill="#FEF9FB" transform="translate(836,244)"/>
<path d="M0 0 C2.31 0 4.62 0 7 0 C7 0.66 7 1.32 7 2 C5.35 2.33 3.7 2.66 2 3 C2.804375 3.309375 3.60875 3.61875 4.4375 3.9375 C7 5 7 5 8 6 C8.25 8.4375 8.25 8.4375 8 11 C4.77208445 13.1519437 3.71599191 13.20086443 0 13 C-0.66 11.68 -1.32 10.36 -2 9 C0.97 9.495 0.97 9.495 4 10 C4 9.01 4 8.02 4 7 C2.02 7 0.04 7 -2 7 C-1.34 4.69 -0.68 2.38 0 0 Z " fill="#FEEBF3" transform="translate(255,244)"/>
<path d="M0 0 C2.31 0 4.62 0 7 0 C7 0.66 7 1.32 7 2 C5.35 2.33 3.7 2.66 2 3 C2.804375 3.309375 3.60875 3.61875 4.4375 3.9375 C7 5 7 5 8 6 C8.25 8.4375 8.25 8.4375 8 11 C4.77208445 13.1519437 3.71599191 13.20086443 0 13 C-0.66 11.68 -1.32 10.36 -2 9 C0.97 9.495 0.97 9.495 4 10 C4 9.01 4 8.02 4 7 C2.02 7 0.04 7 -2 7 C-1.34 4.69 -0.68 2.38 0 0 Z " fill="#FEEAF3" transform="translate(244,244)"/>
<path d="M0 0 C0.928125 0.20625 1.85625 0.4125 2.8125 0.625 C3.1425 2.275 3.4725 3.925 3.8125 5.625 C1.5025 5.625 -0.8075 5.625 -3.1875 5.625 C-3.1875 6.285 -3.1875 6.945 -3.1875 7.625 C0.2775 7.13 0.2775 7.13 3.8125 6.625 C2.8225 8.11 2.8225 8.11 1.8125 9.625 C-0.4975 9.295 -2.8075 8.965 -5.1875 8.625 C-5.5175 6.315 -5.8475 4.005 -6.1875 1.625 C-3.1875 -0.375 -3.1875 -0.375 0 0 Z " fill="#F7FBFD" transform="translate(556.1875,247.375)"/>
<path d="M0 0 C2.5 -0.3125 2.5 -0.3125 5 0 C7 2 7 2 7.1953125 3.9453125 C7.13020833 5.96354167 7.06510417 7.98177083 7 10 C0.25 10.125 0.25 10.125 -2 9 C-2 7.68 -2 6.36 -2 5 C-0.02 4.67 1.96 4.34 4 4 C4 3.34 4 2.68 4 2 C2.02 2.33 0.04 2.66 -2 3 C-1.34 2.01 -0.68 1.02 0 0 Z " fill="#E9F5F9" transform="translate(78,247)"/>
<path d="M0 0 C2.64 0 5.28 0 8 0 C8 0.66 8 1.32 8 2 C6.02 2 4.04 2 2 2 C2 2.66 2 3.32 2 4 C2.804375 4.144375 3.60875 4.28875 4.4375 4.4375 C7 5 7 5 8 6 C8.1875 8.4375 8.1875 8.4375 8 11 C7.34 11.66 6.68 12.32 6 13 C2.375 12.625 2.375 12.625 -1 12 C-1.33 11.01 -1.66 10.02 -2 9 C0.31 9.33 2.62 9.66 5 10 C5 9.01 5 8.02 5 7 C3.35 7 1.7 7 0 7 C-0.93423645 3.98968256 -1.04449911 3.13349732 0 0 Z " fill="#FEEEF5" transform="translate(811,244)"/>
<path d="M0 0 C0.66 0.66 1.32 1.32 2 2 C1.875 4.4375 1.875 4.4375 1 7 C-1.0625 8.8125 -1.0625 8.8125 -3 10 C-1.35 10.33 0.3 10.66 2 11 C2 11.66 2 12.32 2 13 C-1.3 13 -4.6 13 -8 13 C-6.79180633 8.16722534 -5.99572608 8.39743565 -2 6 C-1.12177688 3.91466367 -1.12177688 3.91466367 -1 2 C-4.11785113 2.64644661 -4.11785113 2.64644661 -5 5 C-5.66 5 -6.32 5 -7 5 C-7 3.68 -7 2.36 -7 1 C-4.48718205 -0.25640898 -2.78302919 -0.20872719 0 0 Z " fill="#FEF1F6" transform="translate(828,244)"/>
<path d="M0 0 C1.32 0 2.64 0 4 0 C4 5.61 4 11.22 4 17 C2.68 17 1.36 17 0 17 C0 11.39 0 5.78 0 0 Z " fill="#3E3E3E" transform="translate(767,88)"/>
<path d="M0 0 C2.5 0.25 2.5 0.25 4.5 2.25 C4.5 3.57 4.5 4.89 4.5 6.25 C2.52 6.58 0.54 6.91 -1.5 7.25 C0.48 7.25 2.46 7.25 4.5 7.25 C3.51 8.735 3.51 8.735 2.5 10.25 C0 10.5625 0 10.5625 -2.5 10.25 C-4.5 8.25 -4.5 8.25 -4.75 5.25 C-4.43608753 1.48305032 -3.83691092 0.38369109 0 0 Z " fill="#2E2F30" transform="translate(390.5,246.75)"/>
<path d="M0 0 C0.99 0 1.98 0 3 0 C3 1.32 3 2.64 3 4 C3.66 4 4.32 4 5 4 C5 4.99 5 5.98 5 7 C4.34 7 3.68 7 3 7 C3 8.98 3 10.96 3 13 C3.66 13 4.32 13 5 13 C5 13.99 5 14.98 5 16 C3.35 15.67 1.7 15.34 0 15 C0 12.36 0 9.72 0 7 C-0.66 7 -1.32 7 -2 7 C-1.42415568 4.61435923 -0.77772405 2.33317216 0 0 Z " fill="#151515" transform="translate(788,89)"/>
<path d="M0 0 C1 1 1 1 1.09765625 3.06640625 C1.08605469 3.89011719 1.07445312 4.71382812 1.0625 5.5625 C1.05347656 6.38878906 1.04445312 7.21507812 1.03515625 8.06640625 C1.02355469 8.70449219 1.01195312 9.34257812 1 10 C-1.31 10 -3.62 10 -6 10 C-6.38218767 8.34385343 -6.71395102 6.67542976 -7 5 C-6 4 -6 4 -3.4375 3.9375 C-2.2309375 3.9684375 -2.2309375 3.9684375 -1 4 C-1 3.34 -1 2.68 -1 2 C-2.98 2.33 -4.96 2.66 -7 3 C-7 2.34 -7 1.68 -7 1 C-4.51588385 -0.24205807 -2.74800896 -0.14092354 0 0 Z " fill="#EFF7FB" transform="translate(139,247)"/>
<path d="M0 0 C1 1 1 1 1.09765625 2.84765625 C1.04882812 5.92382812 1.04882812 5.92382812 1 9 C-1.31 9 -3.62 9 -6 9 C-6.38218767 7.34385343 -6.71395102 5.67542976 -7 4 C-6 3 -6 3 -3.4375 2.9375 C-2.2309375 2.9684375 -2.2309375 2.9684375 -1 3 C-1 2.34 -1 1.68 -1 1 C-2.98 1.33 -4.96 1.66 -7 2 C-7 1.34 -7 0.68 -7 0 C-4.31633121 -1.3418344 -2.84719317 -0.73004953 0 0 Z " fill="#4F5456" transform="translate(404,248)"/>
<path d="M0 0 C2.64 0 5.28 0 8 0 C8 0.99 8 1.98 8 3 C7.01 3.33 6.02 3.66 5 4 C4.67 6.64 4.34 9.28 4 12 C2.68 12 1.36 12 0 12 C0 8.04 0 4.08 0 0 Z " fill="#353535" transform="translate(809,93)"/>
<path d="M0 0 C0.66 0 1.32 0 2 0 C2 4.62 2 9.24 2 14 C-4.0546875 14.1953125 -4.0546875 14.1953125 -6 14 C-6.66 13.34 -7.32 12.68 -8 12 C-7.625 9.375 -7.625 9.375 -7 7 C-6.34 8.32 -5.68 9.64 -5 11 C-4.01 11 -3.02 11 -2 11 C-1.34 7.37 -0.68 3.74 0 0 Z " fill="#F4FAFC" transform="translate(106,243)"/>
<path d="M0 0 C2.8992226 0.46761655 3.86675182 0.86675182 6 3 C6 3.99 6 4.98 6 6 C3.69 6.33 1.38 6.66 -1 7 C1.31 7 3.62 7 6 7 C5.01 8.485 5.01 8.485 4 10 C1.69 9.67 -0.62 9.34 -3 9 C-3.33 7.35 -3.66 5.7 -4 4 C-2 3 -2 3 2 3 C1.01 2.34 0.02 1.68 -1 1 C-0.67 0.67 -0.34 0.34 0 0 Z " fill="#F8FCFD" transform="translate(125,247)"/>
<path d="M0 0 C0.928125 0.20625 1.85625 0.4125 2.8125 0.625 C3.1425 1.615 3.4725 2.605 3.8125 3.625 C0.8425 3.13 0.8425 3.13 -2.1875 2.625 C-2.1875 3.945 -2.1875 5.265 -2.1875 6.625 C-0.2075 6.295 1.7725 5.965 3.8125 5.625 C3.4825 6.615 3.1525 7.605 2.8125 8.625 C-2.63486842 9.95657895 -2.63486842 9.95657895 -5.0625 8.5 C-6.55727553 6.00870746 -6.62680917 4.48050958 -6.1875 1.625 C-3.1875 -0.375 -3.1875 -0.375 0 0 Z " fill="#E9F5F9" transform="translate(534.1875,247.375)"/>
<path d="M0 0 C1.65 0.33 3.3 0.66 5 1 C5 4.63 5 8.26 5 12 C2.69 12.33 0.38 12.66 -2 13 C-2.33 12.34 -2.66 11.68 -3 11 C-1.35 10.67 0.3 10.34 2 10 C2 9.34 2 8.68 2 8 C0.68 7.67 -0.64 7.34 -2 7 C-2 6.34 -2 5.68 -2 5 C-0.68 4.34 0.64 3.68 2 3 C1.01 2.34 0.02 1.68 -1 1 C-0.67 0.67 -0.34 0.34 0 0 Z " fill="#FEF9FB" transform="translate(680,244)"/>
<path d="M0 0 C1.32 0.66 2.64 1.32 4 2 C4 2.99 4 3.98 4 5 C2.68 5 1.36 5 0 5 C0 5.66 0 6.32 0 7 C1.65 7.33 3.3 7.66 5 8 C4.67 8.99 4.34 9.98 4 11 C2.02 11.33 0.04 11.66 -2 12 C-2.05395478 10.37536158 -2.09277195 8.75021459 -2.125 7.125 C-2.14820313 6.22007812 -2.17140625 5.31515625 -2.1953125 4.3828125 C-2 2 -2 2 0 0 Z " fill="#FCC2DA" transform="translate(678,244)"/>
<path d="M0 0 C2.625 0.375 2.625 0.375 5 1 C5.625 3.375 5.625 3.375 6 6 C5.34 6.66 4.68 7.32 4 8 C1.375 7.625 1.375 7.625 -1 7 C-1.625 4.625 -1.625 4.625 -2 2 C-1.34 1.34 -0.68 0.68 0 0 Z " fill="#FBFDFE" transform="translate(459,54)"/>
<path d="M0 0 C3.3 0 6.6 0 10 0 C9.0729058 3.70837682 7.92583901 5.79026832 6 9 C5.30420546 11.19130534 5.30420546 11.19130534 5 13 C4.01 13 3.02 13 2 13 C2.4794463 8.78087253 3.16625119 6.20336822 6 3 C3.03 2.505 3.03 2.505 0 2 C0 1.34 0 0.68 0 0 Z " fill="#EBF6FA" transform="translate(511,244)"/>
<path d="M0 0 C0.99 0 1.98 0 3 0 C3 5.61 3 11.22 3 17 C2.01 17 1.02 17 0 17 C0 11.39 0 5.78 0 0 Z " fill="#1B1B1B" transform="translate(461,88)"/>
<path d="M0 0 C0.99 0 1.98 0 3 0 C3 5.61 3 11.22 3 17 C2.01 17 1.02 17 0 17 C0 11.39 0 5.78 0 0 Z " fill="#111111" transform="translate(378,88)"/>
<path d="M0 0 C3.3 0 6.6 0 10 0 C9.0729058 3.70837682 7.92583901 5.79026832 6 9 C5.30420546 11.19130534 5.30420546 11.19130534 5 13 C4.01 13 3.02 13 2 13 C3.00193437 9.20696275 3.81024227 6.28463659 6 3 C3.03 2.505 3.03 2.505 0 2 C0 1.34 0 0.68 0 0 Z " fill="#FDE2EE" transform="translate(841,244)"/>
<path d="M0 0 C3.3 0 6.6 0 10 0 C9.0729058 3.70837682 7.92583901 5.79026832 6 9 C5.30420546 11.19130534 5.30420546 11.19130534 5 13 C4.01 13 3.02 13 2 13 C3.00193437 9.20696275 3.81024227 6.28463659 6 3 C3.03 2.505 3.03 2.505 0 2 C0 1.34 0 0.68 0 0 Z " fill="#FEF4F8" transform="translate(709,244)"/>
<path d="M0 0 C2.31 0 4.62 0 7 0 C7 0.99 7 1.98 7 3 C6.01 3.66 5.02 4.32 4 5 C3.26393501 8.56769552 3.26393501 8.56769552 3 12 C2.01 12 1.02 12 0 12 C0 8.04 0 4.08 0 0 Z " fill="#171717" transform="translate(482,93)"/>
<path d="M0 0 C0 1.98 0 3.96 0 6 C-4.75 7.125 -4.75 7.125 -7 6 C-7 4.02 -7 2.04 -7 0 C-4.3333581 -1.33332095 -2.83319697 -0.67102033 0 0 Z " fill="#FAFCFD" transform="translate(358,55)"/>
<path d="M0 0 C0 0.66 0 1.32 0 2 C-0.66 2 -1.32 2 -2 2 C-2 2.66 -2 3.32 -2 4 C-1.34 4 -0.68 4 0 4 C0 4.66 0 5.32 0 6 C-0.66 6 -1.32 6 -2 6 C-2 8.64 -2 11.28 -2 14 C-2.99 14 -3.98 14 -5 14 C-5.25028811 12.41986783 -5.47440946 10.83557694 -5.6875 9.25 C-5.81511719 8.36828125 -5.94273437 7.4865625 -6.07421875 6.578125 C-5.94803196 2.19479429 -4.44647553 0 0 0 Z " fill="#4D5153" transform="translate(413,243)"/>
<path d="M0 0 C2.31 0 4.62 0 7 0 C7 0.99 7 1.98 7 3 C6.01 3.66 5.02 4.32 4 5 C3.26393501 8.56769552 3.26393501 8.56769552 3 12 C2.01 12 1.02 12 0 12 C0 8.04 0 4.08 0 0 Z " fill="#1C1C1C" transform="translate(362,93)"/>
<path d="M0 0 C2.31 0 4.62 0 7 0 C7 0.99 7 1.98 7 3 C6.01 3.33 5.02 3.66 4 4 C3.67 6.64 3.34 9.28 3 12 C2.01 12 1.02 12 0 12 C0 8.04 0 4.08 0 0 Z " fill="#191919" transform="translate(184,93)"/>
<path d="M0 0 C0 1.98 0 3.96 0 6 C-4.75 7.125 -4.75 7.125 -7 6 C-7 4.02 -7 2.04 -7 0 C-4.3333581 -1.33332095 -2.83319697 -0.67102033 0 0 Z " fill="#FBFDFE" transform="translate(438,55)"/>
<path d="M0 0 C0.66 0.66 1.32 1.32 2 2 C5.59679066 1.67673447 5.59679066 1.67673447 9 1 C9.36 6.4 9.36 6.4 7.875 8.875 C5.21965017 10.4682099 3.03210482 10.20214032 0 10 C0.33 9.01 0.66 8.02 1 7 C2.65 6.67 4.3 6.34 6 6 C6 5.67 6 5.34 6 5 C4.35 5 2.7 5 1 5 C0.67 3.35 0.34 1.7 0 0 Z " fill="#FEFAFC" transform="translate(665,247)"/>
<path d="M0 0 C0.33 0 0.66 0 1 0 C0.67 3.63 0.34 7.26 0 11 C-1.32 11.33 -2.64 11.66 -4 12 C-4.99 10.68 -5.98 9.36 -7 8 C-6.34 6.68 -5.68 5.36 -5 4 C-3.35 4 -1.7 4 0 4 C0 2.68 0 1.36 0 0 Z " fill="#EAF6F9" transform="translate(105,243)"/>
<path d="M0 0 C1.485 0.99 1.485 0.99 3 2 C3 3.32 3 4.64 3 6 C4.98 6 6.96 6 9 6 C9 6.66 9 7.32 9 8 C7.02 8 5.04 8 3 8 C3 9.98 3 11.96 3 14 C2.01 14 1.02 14 0 14 C0 9.38 0 4.76 0 0 Z " fill="#FCDEEB" transform="translate(222,243)"/>
<path d="M0 0 C1.32 0 2.64 0 4 0 C4 0.66 4 1.32 4 2 C3.34 2 2.68 2 2 2 C2 2.66 2 3.32 2 4 C2.66 4 3.32 4 4 4 C4 4.66 4 5.32 4 6 C3.01 6 2.02 6 1 6 C1 8.64 1 11.28 1 14 C0.34 14 -0.32 14 -1 14 C-1 11.36 -1 8.72 -1 6 C-1.66 6 -2.32 6 -3 6 C-3 5.34 -3 4.68 -3 4 C-2.34 4 -1.68 4 -1 4 C-0.67 2.68 -0.34 1.36 0 0 Z " fill="#FEECF3" transform="translate(805,243)"/>
<path d="M0 0 C0.99 0 1.98 0 3 0 C3 2.64 3 5.28 3 8 C3.66 8 4.32 8 5 8 C5 8.66 5 9.32 5 10 C4.34 10 3.68 10 3 10 C3 10.99 3 11.98 3 13 C2.34 13 1.68 13 1 13 C1 12.01 1 11.02 1 10 C-0.98 10 -2.96 10 -5 10 C-4.67 9.01 -4.34 8.02 -4 7 C-2.35 7.33 -0.7 7.66 1 8 C0.67 5.36 0.34 2.72 0 0 Z " fill="#2C2C2C" transform="translate(419,244)"/>
<path d="M0 0 C4.875 0.875 4.875 0.875 6 2 C6.07205511 3.68608966 6.08386068 5.37500659 6.0625 7.0625 C6.05347656 7.98160156 6.04445313 8.90070313 6.03515625 9.84765625 C6.02355469 10.55792969 6.01195312 11.26820312 6 12 C5.01 12 4.02 12 3 12 C2.67 9.36 2.34 6.72 2 4 C1.01 4 0.02 4 -1 4 C-0.67 2.68 -0.34 1.36 0 0 Z " fill="#1C1C1C" transform="translate(305,93)"/>
<path d="M0 0 C0.33 0.66 0.66 1.32 1 2 C1.99 2 2.98 2 4 2 C4.33 1.34 4.66 0.68 5 0 C5 0.66 5 1.32 5 2 C5.99 2 6.98 2 8 2 C8 2.66 8 3.32 8 4 C7.01 4 6.02 4 5 4 C5 4.99 5 5.98 5 7 C4.01 6.67 3.02 6.34 2 6 C2.33 5.34 2.66 4.68 3 4 C2.34 4 1.68 4 1 4 C0.67 4.99 0.34 5.98 0 7 C-0.66 7 -1.32 7 -2 7 C-2 6.01 -2 5.02 -2 4 C-2.66 4 -3.32 4 -4 4 C-4 3.34 -4 2.68 -4 2 C-2.68 2 -1.36 2 0 2 C0 1.34 0 0.68 0 0 Z " fill="#FEEEF5" transform="translate(792,250)"/>
<path d="M0 0 C0.33 0.66 0.66 1.32 1 2 C2.65 1.34 4.3 0.68 6 0 C6 0.66 6 1.32 6 2 C6.99 2 7.98 2 9 2 C9 2.66 9 3.32 9 4 C8.01 4.33 7.02 4.66 6 5 C5.67 5.66 5.34 6.32 5 7 C4.34 7 3.68 7 3 7 C3 6.01 3 5.02 3 4 C2.34 4 1.68 4 1 4 C1 4.99 1 5.98 1 7 C0.01 6.67 -0.98 6.34 -2 6 C-1.67 5.34 -1.34 4.68 -1 4 C-1.66 4 -2.32 4 -3 4 C-3 3.34 -3 2.68 -3 2 C-2.01 2 -1.02 2 0 2 C0 1.34 0 0.68 0 0 Z " fill="#F6FBFC" transform="translate(501,250)"/>
<path d="M0 0 C0 0.66 0 1.32 0 2 C-1.98 2.66 -3.96 3.32 -6 4 C-4.68 5.32 -3.36 6.64 -2 8 C-2.33 8.99 -2.66 9.98 -3 11 C-4.32 10.67 -5.64 10.34 -7 10 C-7.66 7.36 -8.32 4.72 -9 2 C-5.5647952 -0.29013653 -4.014669 -0.17842973 0 0 Z " fill="#FCCFE2" transform="translate(697,244)"/>
<path d="M0 0 C1.32 0 2.64 0 4 0 C4 0.66 4 1.32 4 2 C3.01 2 2.02 2 1 2 C1 2.66 1 3.32 1 4 C1.99 4 2.98 4 4 4 C4 4.66 4 5.32 4 6 C3.01 6 2.02 6 1 6 C1 8.64 1 11.28 1 14 C0.34 14 -0.32 14 -1 14 C-1 11.36 -1 8.72 -1 6 C-1.66 6 -2.32 6 -3 6 C-3 5.34 -3 4.68 -3 4 C-2.34 4 -1.68 4 -1 4 C-0.67 2.68 -0.34 1.36 0 0 Z " fill="#F8FCFD" transform="translate(524,243)"/>
<path d="M0 0 C3.69230769 0.69230769 3.69230769 0.69230769 5 2 C5.1875 4.9375 5.1875 4.9375 5 8 C3 10 3 10 -0.625 10.125 C-1.73875 10.08375 -2.8525 10.0425 -4 10 C-4 9.01 -4 8.02 -4 7 C-1.03 7.495 -1.03 7.495 2 8 C2 6.02 2 4.04 2 2 C1.01 1.67 0.02 1.34 -1 1 C-0.67 0.67 -0.34 0.34 0 0 Z " fill="#FEF4F8" transform="translate(704,247)"/>
<path d="M0 0 C0.66 0 1.32 0 2 0 C2 0.66 2 1.32 2 2 C2.99 2 3.98 2 5 2 C5 2.66 5 3.32 5 4 C4.01 4.33 3.02 4.66 2 5 C1.67 5.66 1.34 6.32 1 7 C0.34 7 -0.32 7 -1 7 C-1 6.34 -1 5.68 -1 5 C-1.66 4.67 -2.32 4.34 -3 4 C-3 4.99 -3 5.98 -3 7 C-3.66 7 -4.32 7 -5 7 C-5 6.01 -5 5.02 -5 4 C-5.66 4 -6.32 4 -7 4 C-7 3.34 -7 2.68 -7 2 C-3.98968256 1.06576355 -3.13349732 0.95550089 0 2 C0 1.34 0 0.68 0 0 Z " fill="#FEF4F8" transform="translate(214,250)"/>
<path d="M0 0 C0.80824219 0.10183594 1.61648437 0.20367187 2.44921875 0.30859375 C3.06410156 0.39238281 3.67898437 0.47617188 4.3125 0.5625 C4.3125 1.2225 4.3125 1.8825 4.3125 2.5625 C3.3225 2.8925 2.3325 3.2225 1.3125 3.5625 C0.9825 4.2225 0.6525 4.8825 0.3125 5.5625 C-0.3475 5.5625 -1.0075 5.5625 -1.6875 5.5625 C-1.6875 4.5725 -1.6875 3.5825 -1.6875 2.5625 C-2.3475 2.5625 -3.0075 2.5625 -3.6875 2.5625 C-3.6875 3.5525 -3.6875 4.5425 -3.6875 5.5625 C-4.6775 5.2325 -5.6675 4.9025 -6.6875 4.5625 C-6.3575 3.9025 -6.0275 3.2425 -5.6875 2.5625 C-6.3475 2.5625 -7.0075 2.5625 -7.6875 2.5625 C-7.6875 1.9025 -7.6875 1.2425 -7.6875 0.5625 C-4.59271121 -0.46909626 -3.16118607 -0.41232862 0 0 Z " fill="#F8FCFD" transform="translate(69.6875,251.4375)"/>
<path d="M0 0 C2.0625 0.4375 2.0625 0.4375 4 1 C4 3.31 4 5.62 4 8 C2.0625 8.5625 2.0625 8.5625 0 9 C-1 8 -1 8 -1.125 4.5 C-1 1 -1 1 0 0 Z " fill="#8ECCE3" transform="translate(565,246)"/>
<path d="M0 0 C1.32 0 2.64 0 4 0 C4 0.66 4 1.32 4 2 C3.01 2 2.02 2 1 2 C1 2.66 1 3.32 1 4 C1.66 4 2.32 4 3 4 C3 4.66 3 5.32 3 6 C2.34 6 1.68 6 1 6 C1 8.64 1 11.28 1 14 C0.34 14 -0.32 14 -1 14 C-1 11.36 -1 8.72 -1 6 C-1.66 6 -2.32 6 -3 6 C-3 5.34 -3 4.68 -3 4 C-2.34 4 -1.68 4 -1 4 C-0.67 2.68 -0.34 1.36 0 0 Z " fill="#FEFBFC" transform="translate(660,243)"/>
<path d="M0 0 C0.80824219 0.10183594 1.61648438 0.20367187 2.44921875 0.30859375 C3.06410156 0.39238281 3.67898438 0.47617188 4.3125 0.5625 C4.3125 1.2225 4.3125 1.8825 4.3125 2.5625 C3.3225 2.5625 2.3325 2.5625 1.3125 2.5625 C1.3125 3.5525 1.3125 4.5425 1.3125 5.5625 C0.3225 5.5625 -0.6675 5.5625 -1.6875 5.5625 C-1.6875 4.9025 -1.6875 4.2425 -1.6875 3.5625 C-2.3475 3.2325 -3.0075 2.9025 -3.6875 2.5625 C-3.6875 3.5525 -3.6875 4.5425 -3.6875 5.5625 C-4.3475 5.5625 -5.0075 5.5625 -5.6875 5.5625 C-5.6875 4.5725 -5.6875 3.5825 -5.6875 2.5625 C-6.3475 2.5625 -7.0075 2.5625 -7.6875 2.5625 C-7.6875 1.9025 -7.6875 1.2425 -7.6875 0.5625 C-4.59271121 -0.46909626 -3.16118607 -0.41232862 0 0 Z " fill="#FEF7FA" transform="translate(650.6875,251.4375)"/>
<path d="M0 0 C0.66 0.33 1.32 0.66 2 1 C1.67 1.66 1.34 2.32 1 3 C1.99 3 2.98 3 4 3 C4 2.01 4 1.02 4 0 C4.66 0 5.32 0 6 0 C6 0.99 6 1.98 6 3 C6.66 3 7.32 3 8 3 C8 3.66 8 4.32 8 5 C6.56359829 5.19573608 5.12580496 5.38127816 3.6875 5.5625 C2.88699219 5.66691406 2.08648437 5.77132812 1.26171875 5.87890625 C-1 6 -1 6 -4 5 C-4 4.34 -4 3.68 -4 3 C-3.01 3 -2.02 3 -1 3 C-0.67 2.01 -0.34 1.02 0 0 Z " fill="#2F3131" transform="translate(357,244)"/>
<path d="M0 0 C1.98 0.66 3.96 1.32 6 2 C5.67 3.65 5.34 5.3 5 7 C2.625 7.125 2.625 7.125 0 7 C-0.66 6.34 -1.32 5.68 -2 5 C-1.46428571 1.46428571 -1.46428571 1.46428571 0 0 Z " fill="#4C4C4C" transform="translate(775,98)"/>
<path d="M0 0 C1.98 0.66 3.96 1.32 6 2 C5.67 3.65 5.34 5.3 5 7 C2.625 7.125 2.625 7.125 0 7 C-0.66 6.34 -1.32 5.68 -2 5 C-1.46428571 1.46428571 -1.46428571 1.46428571 0 0 Z " fill="#4C4C4C" transform="translate(640,98)"/>
<path d="M0 0 C1.98 0.66 3.96 1.32 6 2 C5.67 3.65 5.34 5.3 5 7 C2.625 7.125 2.625 7.125 0 7 C-0.66 6.34 -1.32 5.68 -2 5 C-1.46428571 1.46428571 -1.46428571 1.46428571 0 0 Z " fill="#4C4C4C" transform="translate(579,98)"/>
<path d="M0 0 C1.65 0 3.3 0 5 0 C5.66 1.32 6.32 2.64 7 4 C5 6 5 6 2.375 6.125 C1.59125 6.08375 0.8075 6.0425 0 6 C0 4.02 0 2.04 0 0 Z " fill="#FCFEFE" transform="translate(497,47)"/>
<path d="M0 0 C1.67542976 0.28604898 3.34385343 0.61781233 5 1 C5.625 3.375 5.625 3.375 6 6 C5.34 6.66 4.68 7.32 4 8 C0.375 7.625 0.375 7.625 -3 7 C-3 6.34 -3 5.68 -3 5 C-1.02 5 0.96 5 3 5 C3 4.34 3 3.68 3 3 C1.68 2.34 0.36 1.68 -1 1 C-0.67 0.67 -0.34 0.34 0 0 Z " fill="#F9FCFD" transform="translate(543,249)"/>
<path d="M0 0 C3.625 0.375 3.625 0.375 7 1 C6.67 1.99 6.34 2.98 6 4 C4.35 3.67 2.7 3.34 1 3 C1 3.66 1 4.32 1 5 C1.99 5.33 2.98 5.66 4 6 C4 6.66 4 7.32 4 8 C2.35 7.67 0.7 7.34 -1 7 C-1.625 4.625 -1.625 4.625 -2 2 C-1.34 1.34 -0.68 0.68 0 0 Z " fill="#FEF8FB" transform="translate(266,244)"/>
<path d="M0 0 C0 4.29 0 8.58 0 13 C-0.66 13 -1.32 13 -2 13 C-2 10.03 -2 7.06 -2 4 C-2.99 4 -3.98 4 -5 4 C-5 3.34 -5 2.68 -5 2 C-2 0 -2 0 0 0 Z " fill="#44484A" transform="translate(383,244)"/>
<path d="M0 0 C1.65 0.33 3.3 0.66 5 1 C4.67 2.65 4.34 4.3 4 6 C2.35 5.67 0.7 5.34 -1 5 C-0.67 3.35 -0.34 1.7 0 0 Z " fill="#E4E4E4" transform="translate(388,96)"/>
<path d="M0 0 C1.65 0.33 3.3 0.66 5 1 C4.67 2.65 4.34 4.3 4 6 C2.35 5.67 0.7 5.34 -1 5 C-0.67 3.35 -0.34 1.7 0 0 Z " fill="#E7E7E7" transform="translate(471,96)"/>
<path d="M0 0 C1.65 0.33 3.3 0.66 5 1 C4.67 2.65 4.34 4.3 4 6 C2.35 5.67 0.7 5.34 -1 5 C-0.67 3.35 -0.34 1.7 0 0 Z " fill="#E7E7E7" transform="translate(337,96)"/>
<path d="M0 0 C1.65 0.33 3.3 0.66 5 1 C4.67 2.65 4.34 4.3 4 6 C2.35 5.67 0.7 5.34 -1 5 C-0.67 3.35 -0.34 1.7 0 0 Z " fill="#DBDBDB" transform="translate(402,96)"/>
<path d="M0 0 C0.99 0 1.98 0 3 0 C3.66 1.98 4.32 3.96 5 6 C2.69 6.33 0.38 6.66 -2 7 C-1.34 4.69 -0.68 2.38 0 0 Z " fill="#FDBFDB" transform="translate(279,245)"/>
<path d="M0 0 C2.5625 -0.25 2.5625 -0.25 5 0 C6 1 6 1 6.0625 3.5625 C6.041875 4.366875 6.02125 5.17125 6 6 C4.02 6 2.04 6 0 6 C0.33 5.34 0.66 4.68 1 4 C1.99 4 2.98 4 4 4 C4 3.34 4 2.68 4 2 C2.02 2.33 0.04 2.66 -2 3 C-1.34 2.01 -0.68 1.02 0 0 Z " fill="#FAFDFD" transform="translate(78,247)"/>
<path d="M0 0 C0.66 0.66 1.32 1.32 2 2 C1.625 4.125 1.625 4.125 1 6 C0.34 5.67 -0.32 5.34 -1 5 C-1 4.01 -1 3.02 -1 2 C-4.11785113 2.64644661 -4.11785113 2.64644661 -5 5 C-5.66 5 -6.32 5 -7 5 C-7 3.68 -7 2.36 -7 1 C-4.48718205 -0.25640898 -2.78302919 -0.20872719 0 0 Z " fill="#FDE3EE" transform="translate(828,244)"/>
<path d="M0 0 C-0.33 1.32 -0.66 2.64 -1 4 C-3.31 3.67 -5.62 3.34 -8 3 C-8 2.01 -8 1.02 -8 0 C-4.94736336 -0.98120464 -3.05263664 -0.98120464 0 0 Z " fill="#F96EAB" transform="translate(260,251)"/>
<path d="M0 0 C2.0625 0.4375 2.0625 0.4375 4 1 C3.67 2.65 3.34 4.3 3 6 C1.68 5.67 0.36 5.34 -1 5 C-1 1 -1 1 0 0 Z " fill="#F2F2F2" transform="translate(451,96)"/>
<path d="M0 0 C0.66 0 1.32 0 2 0 C1.745504 1.48206495 1.47088238 2.96068615 1.1875 4.4375 C1.03667969 5.26121094 0.88585937 6.08492187 0.73046875 6.93359375 C0.48941406 7.61550781 0.24835938 8.29742187 0 9 C-0.99 9.33 -1.98 9.66 -3 10 C-2.25 3.375 -2.25 3.375 0 0 Z " fill="#FDE2EE" transform="translate(237,247)"/>
<path d="M0 0 C0.99 0 1.98 0 3 0 C3 1.98 3 3.96 3 6 C1.35 6 -0.3 6 -2 6 C-2 3 -2 3 0 0 Z " fill="#FA9CC4" transform="translate(834,246)"/>
<path d="M0 0 C0.66 0.33 1.32 0.66 2 1 C2 2.98 2 4.96 2 7 C0.35 7 -1.3 7 -3 7 C-3 3.48283697 -2.17554415 2.62878252 0 0 Z " fill="#869196" transform="translate(418,245)"/>
<path d="M0 0 C1.98 0.495 1.98 0.495 4 1 C3.67 2.65 3.34 4.3 3 6 C1.68 5.67 0.36 5.34 -1 5 C-0.67 3.35 -0.34 1.7 0 0 Z " fill="#F63D8B" transform="translate(855,249)"/>
<path d="M0 0 C1.98 0.495 1.98 0.495 4 1 C3.67 2.65 3.34 4.3 3 6 C1.68 5.67 0.36 5.34 -1 5 C-0.67 3.35 -0.34 1.7 0 0 Z " fill="#D5ECF5" transform="translate(370,249)"/>
<path d="M0 0 C1.98 0.495 1.98 0.495 4 1 C3.67 2.65 3.34 4.3 3 6 C1.68 5.67 0.36 5.34 -1 5 C-0.67 3.35 -0.34 1.7 0 0 Z " fill="#F2F2F2" transform="translate(670,96)"/>
<path d="M0 0 C1.98 0.495 1.98 0.495 4 1 C3.67 2.65 3.34 4.3 3 6 C1.68 5.67 0.36 5.34 -1 5 C-0.67 3.35 -0.34 1.7 0 0 Z " fill="#F9F9F9" transform="translate(534,96)"/>
<path d="M0 0 C1.98 0.495 1.98 0.495 4 1 C3.67 2.65 3.34 4.3 3 6 C1.68 5.67 0.36 5.34 -1 5 C-0.67 3.35 -0.34 1.7 0 0 Z " fill="#F9F9F9" transform="translate(417,96)"/>
<path d="M0 0 C1.98 0.495 1.98 0.495 4 1 C3.67 2.65 3.34 4.3 3 6 C1.68 5.67 0.36 5.34 -1 5 C-0.67 3.35 -0.34 1.7 0 0 Z " fill="#F9F9F9" transform="translate(290,96)"/>
<path d="M0 0 C1.98 0.495 1.98 0.495 4 1 C3.67 2.65 3.34 4.3 3 6 C1.68 5.67 0.36 5.34 -1 5 C-0.67 3.35 -0.34 1.7 0 0 Z " fill="#F9F9F9" transform="translate(269,96)"/>
<path d="M0 0 C1.98 0.495 1.98 0.495 4 1 C3.67 2.65 3.34 4.3 3 6 C1.68 5.67 0.36 5.34 -1 5 C-0.67 3.35 -0.34 1.7 0 0 Z " fill="#FAFAFA" transform="translate(217,96)"/>
<path d="M0 0 C0.33 1.32 0.66 2.64 1 4 C3.64 3.67 6.28 3.34 9 3 C8.67 3.99 8.34 4.98 8 6 C2.25 7.125 2.25 7.125 0 6 C0 4.02 0 2.04 0 0 Z " fill="#F3F9FC" transform="translate(529,250)"/>
<path d="M0 0 C1.65 0 3.3 0 5 0 C5.33 0.66 5.66 1.32 6 2 C5.67 2.66 5.34 3.32 5 4 C2.69 4 0.38 4 -2 4 C-1.34 2.68 -0.68 1.36 0 0 Z " fill="#6C7478" transform="translate(388,247)"/>
<path d="M0 0 C0.99 0 1.98 0 3 0 C4.125 3.75 4.125 3.75 3 6 C1.68 5.67 0.36 5.34 -1 5 C-0.67 3.35 -0.34 1.7 0 0 Z " fill="#FA96C1" transform="translate(703,249)"/>
<path d="M0 0 C0.33 1.32 0.66 2.64 1 4 C-1.31 4.33 -3.62 4.66 -6 5 C-6.66 3.68 -7.32 2.36 -8 1 C-5.36 1.33 -2.72 1.66 0 2 C0 1.34 0 0.68 0 0 Z " fill="#FEF7FA" transform="translate(261,252)"/>
<path d="M0 0 C0.33 1.32 0.66 2.64 1 4 C-1.31 4.33 -3.62 4.66 -6 5 C-6.66 3.68 -7.32 2.36 -8 1 C-5.36 1.33 -2.72 1.66 0 2 C0 1.34 0 0.68 0 0 Z " fill="#FEF7FA" transform="translate(250,252)"/>
<path d="M0 0 C1.32 0 2.64 0 4 0 C4 0.66 4 1.32 4 2 C3.01 2 2.02 2 1 2 C1 2.66 1 3.32 1 4 C2.32 4.33 3.64 4.66 5 5 C3.35 5.33 1.7 5.66 0 6 C-0.38218767 4.34385343 -0.71395102 2.67542976 -1 1 C-0.67 0.67 -0.34 0.34 0 0 Z " fill="#2D2D2D" transform="translate(398,251)"/>
<path d="M0 0 C3.3 0 6.6 0 10 0 C10 0.99 10 1.98 10 3 C6.7 2.67 3.4 2.34 0 2 C0 1.34 0 0.68 0 0 Z " fill="#FEF5F9" transform="translate(841,244)"/>
<path d="M0 0 C3.3 0 6.6 0 10 0 C10 0.99 10 1.98 10 3 C6.7 2.67 3.4 2.34 0 2 C0 1.34 0 0.68 0 0 Z " fill="#F9FCFD" transform="translate(511,244)"/>
<path d="M0 0 C1.32 0 2.64 0 4 0 C4 0.66 4 1.32 4 2 C3.01 2 2.02 2 1 2 C1 2.66 1 3.32 1 4 C1.99 4 2.98 4 4 4 C4 4.66 4 5.32 4 6 C2.35 5.67 0.7 5.34 -1 5 C-0.67 3.35 -0.34 1.7 0 0 Z " fill="#FCFDFE" transform="translate(133,251)"/>
<path d="M0 0 C1.32 0.33 2.64 0.66 4 1 C3.67 2.65 3.34 4.3 3 6 C2.01 6 1.02 6 0 6 C0 4.02 0 2.04 0 0 Z " fill="#B3DDEC" transform="translate(101,249)"/>
<path d="M0 0 C3.12290635 0.48578543 5.99580359 0.9986012 9 2 C8.34 2.66 7.68 3.32 7 4 C3.375 3.625 3.375 3.625 0 3 C0 2.01 0 1.02 0 0 Z " fill="#F7FBFD" transform="translate(551,253)"/>
<path d="M0 0 C2.00720923 0.28674418 4.0085944 0.61866701 6 1 C6 1.66 6 2.32 6 3 C4.824375 2.9071875 4.824375 2.9071875 3.625 2.8125 C2.325625 2.9053125 2.325625 2.9053125 1 3 C0.34 3.99 -0.32 4.98 -1 6 C-1.042721 4.33388095 -1.04063832 2.66617115 -1 1 C-0.67 0.67 -0.34 0.34 0 0 Z " fill="#C5E5F1" transform="translate(551,248)"/>
<path d="M0 0 C2.475 0.495 2.475 0.495 5 1 C4.67 1.99 4.34 2.98 4 4 C2.68 4 1.36 4 0 4 C0 2.68 0 1.36 0 0 Z " fill="#95D0E5" transform="translate(542,251)"/>
<path d="M0 0 C2.475 0.495 2.475 0.495 5 1 C4.67 1.99 4.34 2.98 4 4 C2.68 4 1.36 4 0 4 C0 2.68 0 1.36 0 0 Z " fill="#FA9AC2" transform="translate(667,246)"/>
<path d="M0 0 C1.32 0 2.64 0 4 0 C4 1.32 4 2.64 4 4 C2.35 3.67 0.7 3.34 -1 3 C-0.67 2.01 -0.34 1.02 0 0 Z " fill="#FB83B7" transform="translate(267,246)"/>
</svg>
