<?xml version="1.0" encoding="UTF-8"?>
<svg version="1.1" xmlns="http://www.w3.org/2000/svg" width="533" height="151">
<path d="M0 0 C175.89 0 351.78 0 533 0 C533 49.83 533 99.66 533 151 C357.11 151 181.22 151 0 151 C0 101.17 0 51.34 0 0 Z " fill="#FCDC59" transform="translate(0,0)"/>
<path d="M0 0 C5.03625932 -0.105608 9.73682073 0.53503357 14.6628418 1.45068359 C15.39567383 1.57701172 16.12850586 1.70333984 16.88354492 1.83349609 C25.24095773 3.34069408 25.24095773 3.34069408 27.9753418 5.07568359 C29.83576622 10.19500304 30.2682886 14.90749388 30.25 20.34667969 C30.25511093 21.1427916 30.26022186 21.9389035 30.26548767 22.75914001 C30.2793078 25.37254502 30.27843255 27.98568404 30.27612305 30.59912109 C30.28001431 32.42843726 30.28434987 34.25775253 30.28910828 36.08706665 C30.29655433 39.91500786 30.29629106 43.74285682 30.29101562 47.57080078 C30.28522505 52.45855382 30.30214991 57.34592742 30.3253603 62.23361778 C30.3401448 66.01018454 30.3409629 69.78666092 30.33785057 73.5632515 C30.33836147 75.36444474 30.34355554 77.16564336 30.35366249 78.96680832 C30.45655259 99.86717759 30.45655259 99.86717759 25.3112793 106.08740234 C21.80966736 107.56885355 18.34944085 107.74568633 14.6003418 107.88818359 C13.36948853 107.94171997 13.36948853 107.94171997 12.11376953 107.99633789 C5.39369753 108.20116049 -1.26225381 107.91559918 -7.9621582 107.38818359 C-9.37343994 107.29017456 -9.37343994 107.29017456 -10.81323242 107.19018555 C-17.31065717 106.58027403 -17.31065717 106.58027403 -20.52856445 104.30615234 C-24.29466194 98.69142215 -24.30566156 93.76851797 -24.25512695 87.20458984 C-24.25521255 86.22610077 -24.25529816 85.24761169 -24.25538635 84.23947144 C-24.25209543 81.03890232 -24.23320961 77.838682 -24.2121582 74.63818359 C-24.20259895 72.42928111 -24.19315978 70.22037811 -24.18383789 68.01147461 C-24.15530036 62.43086089 -24.10883436 56.85056019 -24.05462646 51.2701416 C-24.02618908 48.23886662 -24.0035071 45.20760159 -23.98217773 42.17626953 C-23.94825691 37.76528844 -23.89150284 33.35522262 -23.81411743 28.9447937 C-23.78804382 27.33805044 -23.76805498 25.73119562 -23.75448608 24.1242981 C-23.59868533 7.75703058 -23.59868533 7.75703058 -19.0246582 2.07568359 C-16.28552556 0.87815271 -13.74031909 0.68915236 -10.7746582 0.57568359 C-10.04891602 0.51638672 -9.32317383 0.45708984 -8.57543945 0.39599609 C-5.71842499 0.18210196 -2.86238033 0.10699842 0 0 Z " fill="#020200" transform="translate(178.024658203125,21.92431640625)"/>
<path d="M0 0 C1.12921875 -0.01224609 2.2584375 -0.02449219 3.421875 -0.03710938 C10.28677704 -0.04902761 16.58581473 0.54002812 23.25 2.1875 C24.24 2.414375 25.23 2.64125 26.25 2.875 C28.8276332 4.56657178 29.100949 6.26770784 29.85686302 9.16585159 C30.52137883 12.58302526 30.53631191 15.99258406 30.5246582 19.45849609 C30.52976913 20.254608 30.53488007 21.05071991 30.54014587 21.87095642 C30.553966 24.48436143 30.55309076 27.09750045 30.55078125 29.7109375 C30.55467252 31.54025367 30.55900807 33.36956894 30.56376648 35.19888306 C30.57121253 39.02682427 30.57094927 42.85467323 30.56567383 46.68261719 C30.55988325 51.57037023 30.57680811 56.45774383 30.6000185 61.34543419 C30.614803 65.12200095 30.6156211 68.89847733 30.61250877 72.6750679 C30.61301968 74.47626115 30.61821374 76.27745976 30.62832069 78.07862473 C30.73121079 98.97899399 30.73121079 98.97899399 25.5859375 105.19921875 C22.08432556 106.68066995 18.62409905 106.85750274 14.875 107 C13.64414673 107.05353638 13.64414673 107.05353638 12.38842773 107.1081543 C5.66835573 107.3129769 -0.98759561 107.02741558 -7.6875 106.5 C-9.09878174 106.40199097 -9.09878174 106.40199097 -10.53857422 106.30200195 C-17.03599897 105.69209043 -17.03599897 105.69209043 -20.25390625 103.41796875 C-24.02000373 97.80323856 -24.03100336 92.88033438 -23.98046875 86.31640625 C-23.98055435 85.33791718 -23.98063995 84.3594281 -23.98072815 83.35128784 C-23.97743723 80.15071873 -23.95855141 76.9504984 -23.9375 73.75 C-23.92794075 71.54109752 -23.91850158 69.33219451 -23.90917969 67.12329102 C-23.88064215 61.5426773 -23.83417615 55.9623766 -23.77996826 50.38195801 C-23.75153087 47.35068303 -23.7288489 44.319418 -23.70751953 41.28808594 C-23.67359871 36.87710485 -23.61684464 32.46703902 -23.53945923 28.05661011 C-23.51338562 26.44986684 -23.49339677 24.84301202 -23.47982788 23.2361145 C-23.32674304 7.15415997 -23.32674304 7.15415997 -18.75 1.1875 C-12.61093429 -0.3148646 -6.28143767 0.00353685 0 0 Z " fill="#020200" transform="translate(112.75,22.8125)"/>
<path d="M0 0 C44.25 0 44.25 0 53 7 C53.69960254 9.91943846 54.10081305 12.36163487 54.3125 15.3125 C54.42174805 16.41368164 54.42174805 16.41368164 54.53320312 17.53710938 C55.36102481 26.42239542 55.11788834 34.53363918 52 43 C49.5 45.625 49.5 45.625 47 47 C46.01 47.66 45.02 48.32 44 49 C44.721875 49.165 45.44375 49.33 46.1875 49.5 C50.31179489 51.69962394 52.03361816 54.83769758 54 59 C55.6463531 65.45876986 55.14216167 72.37255833 55 79 C54.99274902 79.74942871 54.98549805 80.49885742 54.97802734 81.27099609 C54.94905026 83.68198798 54.88435463 86.08993696 54.8125 88.5 C54.80404053 89.64819214 54.80404053 89.64819214 54.79541016 90.81958008 C54.76624512 91.54943115 54.73708008 92.27928223 54.70703125 93.03125 C54.68346558 93.99901367 54.68346558 93.99901367 54.65942383 94.98632812 C54 97 54 97 49 102 C34 105 34 105 0 105 C0 70.35 0 35.7 0 0 Z " fill="#030301" transform="translate(25,23)"/>
<path d="M0 0 C7.59 0 15.18 0 23 0 C29.56018812 20.32058271 35.21438679 40.8618503 40.69116211 61.49829102 C41.99404071 66.38533372 43.31059615 71.22846424 45 76 C45.17253021 67.23211082 44.67690078 58.52597091 44.1449585 49.78012085 C43.20371966 34.16328428 42.73599462 18.64965234 43 3 C46.63 3 50.26 3 54 3 C55.49085285 10.64062086 56.15039813 17.7709025 56.08984375 25.52734375 C56.08605209 26.46554459 56.08226044 27.40374542 56.07835388 28.37037659 C56.01201873 40.69341638 55.82720647 53.01566406 55.62768555 65.3371582 C55.57192692 68.7929539 55.52198761 72.24880964 55.47328281 75.70471096 C55.42491247 79.05190275 55.37024773 82.39898555 55.31640625 85.74609375 C55.29133751 87.58982826 55.29133751 87.58982826 55.26576233 89.47080994 C55.16864359 95.06914963 54.99142105 100.48443284 54 106 C49.5621439 107.11165232 45.23043614 107.11527763 40.6875 107.0625 C39.94693359 107.05798828 39.20636719 107.05347656 38.44335938 107.04882812 C36.62887101 107.03712175 34.81442466 107.01918898 33 107 C31.44121599 102.0410681 29.89339042 97.07889145 28.35522461 92.11352539 C27.83146463 90.42804094 27.30482365 88.74344875 26.77514648 87.05981445 C26.01029635 84.62685572 25.25618001 82.19077887 24.50390625 79.75390625 C24.26845596 79.01290176 24.03300568 78.27189728 23.79042053 77.50843811 C22.1583677 72.17038116 21.6368247 67.73142231 21 62 C20.67 76.85 20.34 91.7 20 107 C1 107 1 107 -1 106 C-0.67 71.02 -0.34 36.04 0 0 Z " fill="#040301" transform="translate(284,22)"/>
<path d="M0 0 C6.27 0 12.54 0 19 0 C18.67 12.21 18.34 24.42 18 37 C20.97 36.505 20.97 36.505 24 36 C25.69308956 33.44632276 26.85803475 31.27690839 28.05078125 28.5 C28.39505661 27.74912109 28.73933197 26.99824219 29.09403992 26.22460938 C30.18857222 23.82555934 31.25093923 21.41379557 32.3125 19 C33.39885673 16.58981841 34.49145191 14.182535 35.58451843 11.77539062 C36.2621858 10.2765437 36.9345389 8.77528094 37.60115051 7.27148438 C39.89682272 2.10317728 39.89682272 2.10317728 41 1 C43.35313555 0.92728259 45.70833668 0.91629132 48.0625 0.9375 C49.35285156 0.94652344 50.64320313 0.95554687 51.97265625 0.96484375 C52.97167969 0.97644531 53.97070312 0.98804687 55 1 C53.30961796 6.88685374 50.5209352 12.13143007 47.75 17.5625 C46.76249997 19.53750007 45.77551818 21.51275935 44.7890625 23.48828125 C43.1861958 26.68155152 41.55397421 29.84782145 39.8359375 32.98046875 C39.27132812 34.05941406 38.70671875 35.13835938 38.125 36.25 C37.63257813 37.14203125 37.14015625 38.0340625 36.6328125 38.953125 C35.05833837 46.53392638 40.3609594 55.95585009 42.9765625 63.046875 C43.73710581 65.12885999 44.49751867 67.21089264 45.2578125 69.29296875 C46.44532655 72.53473429 47.63451369 75.77586872 48.82617188 79.01611328 C49.98500664 82.17056047 51.1374025 85.32730262 52.2890625 88.484375 C52.6463443 89.45010437 53.0036261 90.41583374 53.37173462 91.41082764 C53.7023288 92.31907288 54.03292297 93.22731812 54.37353516 94.16308594 C54.6642691 94.95455017 54.95500305 95.7460144 55.25454712 96.5614624 C56 99 56 99 57 105 C49.08 105 41.16 105 33 105 C32.57847656 102.44765625 32.15695313 99.8953125 31.72265625 97.265625 C31.31264835 94.78997378 30.90207888 92.31441631 30.49145508 89.83886719 C30.20668774 88.12021445 29.92250303 86.40146507 29.63891602 84.68261719 C29.2308675 82.21002895 28.82071536 79.73779744 28.41015625 77.265625 C28.28407486 76.49881409 28.15799347 75.73200317 28.02809143 74.94195557 C27.37436358 70.94374967 27.37436358 70.94374967 26.46238708 66.99945068 C25.7694672 64.00313182 25.9411353 61.06096432 26 58 C23.36 58 20.72 58 18 58 C18.03029297 58.81976318 18.06058594 59.63952637 18.09179688 60.48413086 C18.63320159 75.32799057 19.140155 90.14356977 19 105 C12.4 105 5.8 105 -1 105 C-3.25058616 97.12294842 -3.25058616 97.12294842 -3.25878906 92.38891602 C-3.26500778 91.33048996 -3.2712265 90.2720639 -3.27763367 89.18156433 C-3.27367081 88.05043716 -3.26970795 86.91931 -3.265625 85.75390625 C-3.26830887 84.56166946 -3.27099274 83.36943268 -3.27375793 82.1410675 C-3.27768865 78.28143436 -3.26508334 74.4221025 -3.25 70.5625 C-3.2478952 69.25565247 -3.24579041 67.94880493 -3.24362183 66.60235596 C-3.20124481 44.29969447 -2.76892345 22.15138759 0 0 Z " fill="#050401" transform="translate(221,23)"/>
<path d="M0 0 C15.51 0 31.02 0 47 0 C47 9.24 47 18.48 47 28 C37.1 28 27.2 28 17 28 C17 30.97 17 33.94 17 37 C16.67 39.97 16.34 42.94 16 46 C23.92 46 31.84 46 40 46 C40 50.62 40 55.24 40 60 C33.07 60 26.14 60 19 60 C19 66.93 19 73.86 19 81 C21.165625 80.9690625 21.165625 80.9690625 23.375 80.9375 C31.60202677 80.92671753 39.79029419 81.50618311 48 82 C48 89.26 48 96.52 48 104 C31.5 104 15 104 -2 104 C-2.08021762 83.83863851 -2.08021762 83.83863851 -2.09765625 75.1171875 C-2.10952339 69.21057455 -2.12342377 63.3040247 -2.15087891 57.39746094 C-2.17291762 52.62524483 -2.18463257 47.85309658 -2.18975449 43.08083344 C-2.19339548 41.27756434 -2.20050141 39.47429813 -2.21146011 37.67105865 C-2.2189509 36.38504887 -2.2189509 36.38504887 -2.22659302 35.07305908 C-2.23199663 34.33042439 -2.23740025 33.58778969 -2.24296761 32.82265091 C-2.17990617 21.56597693 -1.13960592 11.39605922 0 0 Z " fill="#030201" transform="translate(352,24)"/>
<path d="M0 0 C0.83853516 -0.02151123 1.67707031 -0.04302246 2.54101562 -0.06518555 C8.19615731 -0.09452409 13.97381942 0.30208195 18.9375 3.25 C21.91038659 7.03948962 22.29795362 9.89809526 22.23046875 14.64453125 C22.2159668 16.44760742 22.2159668 16.44760742 22.20117188 18.28710938 C22.17603516 19.53298828 22.15089844 20.77886719 22.125 22.0625 C22.10469727 23.96032227 22.10469727 23.96032227 22.08398438 25.89648438 C22.04868318 29.01475643 21.99936819 32.13216042 21.9375 35.25 C20.21226203 35.26363675 18.48699211 35.27325932 16.76171875 35.28125 C15.80096436 35.28705078 14.84020996 35.29285156 13.8503418 35.29882812 C9.82575655 35.23136378 5.92675634 34.77318116 1.9375 34.25 C1.9375 29.96 1.9375 25.67 1.9375 21.25 C-1.0325 21.58 -4.0025 21.91 -7.0625 22.25 C-7.0625 29.84 -7.0625 37.43 -7.0625 45.25 C-4.6184375 45.188125 -4.6184375 45.188125 -2.125 45.125 C3.28698007 45.11130796 8.52040122 45.58523526 13.87890625 46.2578125 C14.65786255 46.35263916 15.43681885 46.44746582 16.23937988 46.54516602 C18.13914785 46.77689836 20.03838269 47.01299443 21.9375 47.25 C21.96244748 53.01171564 21.9804758 58.77339898 21.99243164 64.53515625 C21.99742238 66.49023996 22.00421734 68.44532 22.01293945 70.40039062 C22.14024373 99.69535129 22.14024373 99.69535129 18.98828125 103.76953125 C7.99385949 108.96090586 -5.06715995 108.62935721 -16.6328125 105.1875 C-20.8387586 103.22554264 -23.4324396 101.71728818 -25.0625 97.25 C-26.197722 91.52359533 -26.21312076 85.87414168 -26.1875 80.0625 C-26.19136719 79.17369141 -26.19523437 78.28488281 -26.19921875 77.36914062 C-26.19792969 76.51126953 -26.19664062 75.65339844 -26.1953125 74.76953125 C-26.19362061 73.61094604 -26.19362061 73.61094604 -26.19189453 72.42895508 C-26.06263658 70.25230002 -25.66139703 68.34197645 -25.0625 66.25 C-22.95840361 66.22298592 -20.85420822 66.20359777 -18.75 66.1875 C-17.57824219 66.17589844 -16.40648437 66.16429688 -15.19921875 66.15234375 C-12.0625 66.25 -12.0625 66.25 -9.0625 67.25 C-9.0625 72.53 -9.0625 77.81 -9.0625 83.25 C-6.4225 83.25 -3.7825 83.25 -1.0625 83.25 C0.9175 83.58 2.8975 83.91 4.9375 84.25 C4.9375 75.67 4.9375 67.09 4.9375 58.25 C-8.9225 57.755 -8.9225 57.755 -23.0625 57.25 C-23.94438519 46.71756631 -24.30917663 36.26178302 -24.35766602 25.69604492 C-24.36935216 23.92057432 -24.390055 22.14514306 -24.41918945 20.36987305 C-24.46157903 17.77368912 -24.47797266 15.17851661 -24.48828125 12.58203125 C-24.50578934 11.78835648 -24.52329742 10.9946817 -24.54133606 10.17695618 C-24.51965151 4.72614835 -24.51965151 4.72614835 -22.15307617 2.26123047 C-15.63206501 -0.89304119 -7.11251861 0.10663544 0 0 Z " fill="#030201" transform="translate(432.0625,21.75)"/>
<path d="M0 0 C5.71090712 -0.02301754 11.42165173 -0.04291271 17.13256836 -0.05493164 C19.07332913 -0.05994485 21.01408616 -0.06675712 22.95483398 -0.07543945 C25.75245084 -0.08763732 28.55001755 -0.09325855 31.34765625 -0.09765625 C32.2083522 -0.10281754 33.06904816 -0.10797882 33.95582581 -0.11329651 C38.74729665 -0.11373768 43.27500764 0.19438183 48 1 C48.02703562 3.58340384 48.04685611 6.16652308 48.0625 8.75 C48.07087891 9.47960938 48.07925781 10.20921875 48.08789062 10.9609375 C48.10423793 14.55734353 47.87886398 17.48454408 47 21 C43.37 21 39.74 21 36 21 C36 48.72 36 76.44 36 105 C27.75 105 19.5 105 11 105 C10.95718044 94.1024211 11.10314336 83.23542903 11.4375 72.34375 C11.48254575 70.81962682 11.52738201 69.29549744 11.57202148 67.7713623 C11.68831667 63.81937376 11.80739735 59.86747425 11.92712402 55.91558838 C12.04950312 51.85914154 12.169157 47.80261433 12.2890625 43.74609375 C12.52342358 35.83064911 12.76098981 27.91530562 13 20 C8.38 20 3.76 20 -1 20 C-0.67 13.4 -0.34 6.8 0 0 Z " fill="#030201" transform="translate(461,23)"/>
<path d="M0 0 C2.27057377 -0.05398987 4.54151288 -0.09278742 6.8125 -0.125 C8.07707031 -0.14820313 9.34164062 -0.17140625 10.64453125 -0.1953125 C14 0 14 0 17 2 C17.35644531 5.03076172 17.35644531 5.03076172 17.328125 8.9296875 C17.32661438 9.62837952 17.32510376 10.32707153 17.32354736 11.04693604 C17.31416908 13.32334141 17.28266076 15.59881933 17.25 17.875 C17.23811199 19.42691451 17.22704518 20.97883552 17.21679688 22.53076172 C17.12179302 33.70295165 16.76690388 44.85250434 16 56 C12.54839849 58.11441933 9.81967844 58.24118936 5.8125 58.1875 C4.74644531 58.18105469 3.68039063 58.17460938 2.58203125 58.16796875 C0 58 0 58 -1 57 C-1.09881245 55.29210719 -1.12798966 53.58013307 -1.12939453 51.86938477 C-1.13412277 50.2274691 -1.13412277 50.2274691 -1.13894653 48.55238342 C-1.1369223 47.36076096 -1.13489807 46.16913849 -1.1328125 44.94140625 C-1.13376923 43.72678207 -1.13472595 42.5121579 -1.13571167 41.26072693 C-1.13639377 38.68578032 -1.13453741 36.110832 -1.13037109 33.53588867 C-1.12502789 29.58313142 -1.13031274 25.63048804 -1.13671875 21.67773438 C-1.13605788 19.18229141 -1.13477654 16.68684853 -1.1328125 14.19140625 C-1.13483673 13.00180801 -1.13686096 11.81220978 -1.13894653 10.58656311 C-1.13579437 9.48880051 -1.13264221 8.3910379 -1.12939453 7.26000977 C-1.12859894 6.2903981 -1.12780334 5.32078644 -1.12698364 4.3217926 C-1 2 -1 2 0 0 Z " fill="#F7D757" transform="translate(172,51)"/>
<path d="M0 0 C2.27057377 -0.05398987 4.54151288 -0.09278742 6.8125 -0.125 C8.07707031 -0.14820313 9.34164062 -0.17140625 10.64453125 -0.1953125 C14 0 14 0 17 2 C17.35644531 5.03076172 17.35644531 5.03076172 17.328125 8.9296875 C17.32661438 9.62837952 17.32510376 10.32707153 17.32354736 11.04693604 C17.31416908 13.32334141 17.28266076 15.59881933 17.25 17.875 C17.23811199 19.42691451 17.22704518 20.97883552 17.21679688 22.53076172 C17.12179302 33.70295165 16.76690388 44.85250434 16 56 C12.54839849 58.11441933 9.81967844 58.24118936 5.8125 58.1875 C4.74644531 58.18105469 3.68039063 58.17460938 2.58203125 58.16796875 C0 58 0 58 -1 57 C-1.09867285 55.36397756 -1.12798826 53.72371155 -1.12939453 52.0847168 C-1.13254669 51.03660324 -1.13569885 49.98848969 -1.13894653 48.90861511 C-1.1369223 47.76701431 -1.13489807 46.62541351 -1.1328125 45.44921875 C-1.13376923 44.28373001 -1.13472595 43.11824127 -1.13571167 41.91743469 C-1.13639386 39.4450373 -1.13453688 36.97263812 -1.13037109 34.50024414 C-1.12503777 30.7143144 -1.13030736 26.92850408 -1.13671875 23.14257812 C-1.13605769 20.7447914 -1.13477596 18.34700476 -1.1328125 15.94921875 C-1.13483673 14.81369064 -1.13686096 13.67816254 -1.13894653 12.50822449 C-1.13579437 11.45065445 -1.13264221 10.39308441 -1.12939453 9.3034668 C-1.12859894 8.37382614 -1.12780334 7.44418549 -1.12698364 6.4863739 C-1.00916419 4.17943729 -0.65126458 2.20904307 0 0 Z " fill="#F7D757" transform="translate(107,51)"/>
<path d="M0 0 C10 1 10 1 13 3.1875 C17.69820034 9.79434423 17.83698627 17.15568683 17 25 C15.95431961 27.791512 14.79616019 29.58640975 13 32 C8.71 32 4.42 32 0 32 C0 21.44 0 10.88 0 0 Z " fill="#F7D757" transform="translate(38,80)"/>
<path d="M0 0 C11.57983353 -0.76294657 11.57983353 -0.76294657 14.94140625 1.04296875 C18.60608289 4.77328139 19.15612542 7.70496805 19.1875 12.75 C19.20167969 13.77609375 19.21585938 14.8021875 19.23046875 15.859375 C19 19 19 19 17 25 C12.05 25 7.1 25 2 25 C-0.25 18.25 -0.25 18.25 -0.1953125 14.2578125 C-0.18886719 13.41992188 -0.18242188 12.58203125 -0.17578125 11.71875 C-0.15902344 10.8628125 -0.14226563 10.006875 -0.125 9.125 C-0.11597656 8.24585938 -0.10695312 7.36671875 -0.09765625 6.4609375 C-0.07424577 4.3071729 -0.0383801 2.15354986 0 0 Z " fill="#FBDA58" transform="translate(39,41)"/>
</svg>
